<svg width="94" height="87" viewBox="0 0 94 87" xmlns="http://www.w3.org/2000/svg">
    <path d="M93.593 52.666c-.414-.69-1.243-.828-1.933-.552-2.9 1.657-5.11-.138-8.976-3.453-2.762-2.347-5.938-5.11-9.943-5.938-4.281-.828-8.01 1.105-10.357 3.729-.69-.138-1.381-.138-2.072-.138h-.138a16.48 16.48 0 0 0-5.11.828c-1.242-2.485-3.037-4.971-5.247-7.319 2.624-1.243 4.42-4.005 4.42-7.043 0-4.28-3.453-7.871-7.872-7.871-3.729 0-6.905 2.624-7.596 6.076a30.923 30.923 0 0 0-4.004-1.657 28.693 28.693 0 0 1 2.071-2.762c2.072-2.21 2.762-4.833 1.933-7.319-.138-.552-.414-1.105-.828-1.657 1.38-3.038 1.105-6.353.138-8.7 1.243-1.657 2.348-3.59 2.9-5.938.138-.69-.276-1.52-.967-1.657-.69-.138-1.519.276-1.657.966-.414 1.52-.966 2.9-1.795 4.005-.967-1.243-2.348-2.071-3.59-2.21-4.281-.414-6.353 1.381-6.905 3.315-.553 1.795.276 3.728 1.933 4.695 1.657.967 3.729.967 5.8.138.69-.276 1.381-.69 2.071-1.243.277 1.243.415 2.762 0 4.281-.828-.552-1.795-.966-2.761-1.243-2.21-.414-4.281.139-5.662 1.796-.967 1.104-1.243 2.485-.829 3.866.552 1.52 1.933 2.762 3.59 3.038 1.243.277 3.591.139 5.939-2.485.414 1.519-.138 3.038-1.381 4.419-1.243 1.38-2.21 2.624-2.9 3.866-1.105-.138-2.072-.276-3.038-.276-2.9 0-5.386.967-7.181 2.624-.829.829-1.52 1.933-1.934 3.176L.241 81.804c-.414.967-.276 2.072.276 3.038.552.967 1.657 1.381 2.624 1.381.414 0 .828-.138 1.243-.276l29.552-12.152 18.09-7.457c1.243-.415 2.348-1.105 3.177-1.934 3.314-3.314 3.452-8.838.966-14.776 1.243-.414 2.624-.552 3.867-.552h.414c-1.933 3.728-1.519 7.733.829 10.495 1.38 1.519 3.038 2.071 4.557 2.071a5.893 5.893 0 0 0 3.729-1.38c2.21-1.934 3.314-5.663.276-9.53-1.243-1.518-2.762-2.761-4.557-3.452 1.795-1.519 4.143-2.347 6.766-1.795 3.315.69 6.077 3.038 8.7 5.248 3.729 3.176 7.458 6.352 12.153 3.728.828-.276 1.105-1.104.69-1.795zM32.831 9.718c-.828.415-2.071.69-3.314 0-.552-.276-.828-.966-.69-1.519.276-.69 1.104-1.38 3.176-1.38h.828c.553 0 1.381.552 2.072 1.519a6.03 6.03 0 0 1-2.072 1.38zm1.658 8.7c-1.105 1.381-2.348 2.072-3.453 1.796-.69-.138-1.243-.553-1.519-1.243-.138-.414 0-.829.276-1.105.69-.829 1.52-.967 2.21-.967.276 0 .552 0 .828.138.69.139 1.52.553 2.072 1.105-.276 0-.414.138-.414.276zm12.014 9.253c2.762 0 5.11 2.21 5.11 5.11 0 2.485-1.934 4.695-4.42 4.97-.276 0-.414.139-.69.139-.276 0-.69 0-.967-.138h-.276c-.276 0-.414-.138-.69-.276-.139 0-.139-.138-.277-.138-.138-.139-.414-.139-.552-.277-.138-.138-.276-.138-.276-.276-.138-.138-.276-.138-.415-.276l-.414-.414c0-.138-.138-.138-.138-.277-.138-.276-.276-.414-.414-.69-.276-.552-.415-1.105-.553-1.795v-.415c-.138-2.9 2.21-5.247 4.972-5.247zM30.622 58.88c.138.137.276.276.414.276.553.414 1.105.966 1.657 1.38l.276.277c.553.414.967.69 1.52 1.104.138.139.276.139.276.277.552.414 1.104.69 1.657 1.104.138.139.276.139.414.277.553.276 1.105.69 1.657.966h.138c.553.276 1.105.553 1.796.829 0 0 .138 0 .138.138-12.153-1.381-21.543-8.01-24.305-14.914l1.38-3.453c1.796 2.624 4.42 4.696 7.734 6.353 1.105 1.38 2.21 2.762 3.59 4.142.553.277 1.105.83 1.658 1.243zm2.762 12.29c-5.662-.69-18.229-3.176-21.129-11.186l2.486-6.214c4.695 8.147 15.467 13.119 26.1 14.362l-7.457 3.038zm-10.357 4.28c-5.11-.413-11.462-2.347-13.672-8.423l1.52-3.59c3.59 5.8 11.185 8.423 17.675 9.804l-5.523 2.21zm-9.253 3.73c-4.28 0-7.319-1.796-7.871-3.73l2.071-4.97c2.072 3.452 5.524 5.661 10.22 6.904l-4.42 1.795zm8.01-31.486c-1.243-1.105-2.072-2.348-2.9-3.867l.828-1.933c.415 1.933 1.105 3.866 2.072 5.8zM3.417 83.46c-.276.138-.414 0-.552-.138-.138-.138 0-.414 0-.414l1.795-4.281c1.105 1.105 2.486 2.071 4.28 2.624l-5.523 2.21zm49.99-20.99c-.552.552-1.38 1.105-2.209 1.38-.829.277-1.933.415-3.038.415-4.557 0-10.22-2.624-15.19-6.905-.139-.138-.415-.276-.553-.552-.552-.414-.967-.967-1.519-1.381l-1.38-1.381c-.139-.138-.277-.414-.415-.552-.276-.277-.553-.553-.829-.967-.138-.276-.276-.414-.552-.69-.276-.277-.414-.553-.69-.83-.139-.275-.277-.413-.415-.69-.138-.276-.414-.552-.552-.828-.138-.276-.276-.414-.415-.69-.276-.277-.414-.691-.552-.967-.138-.138-.138-.276-.276-.415-.276-.552-.553-.966-.829-1.519 0-.138-.138-.276-.138-.276-.138-.414-.414-.828-.552-1.243 0-.138-.138-.276-.138-.414-.138-.414-.276-.69-.415-1.105 0-.138-.138-.276-.138-.414-.138-.414-.276-.829-.276-1.105 0-.138 0-.138-.138-.276-.138-.414-.138-.828-.276-1.243v-.138c-.138-.967-.138-1.795 0-2.624v-.138c0-.276.138-.69.138-.966 0-.139.138-.277.138-.415.276-1.105.829-1.933 1.52-2.624 1.242-1.242 2.9-1.795 5.109-1.795.552 0 1.104 0 1.657.138-1.243 2.762-1.381 4.696-1.381 5.248 0 .829.552 1.38 1.38 1.38.691 0 1.382-.551 1.382-1.38 0-.276.138-2.21 1.38-4.833 1.796.552 3.591 1.242 5.386 2.347a9.11 9.11 0 0 0 1.658 3.729l.138.138c.276.276.414.552.69.69.138 0 .138.138.276.138.276.277.553.415.829.553.138 0 .276.138.276.138.276.138.552.276.967.414.138 0 .276.138.276.138.414.138.69.277 1.105.277h.276c.414 0 .828.138 1.243.138h.414c2.348 2.347 4.143 4.971 5.524 7.595-3.453 1.519-6.629 4.005-9.114 7.319-.415.552-.415 1.519.276 1.933.552.414 1.519.414 1.933-.276 2.348-2.9 5.11-5.11 8.148-6.49 2.21 5.11 2.347 9.666-.138 12.014zm14.5-9.943c2.072 2.624 1.382 4.833.139 5.8-1.105.967-3.038 1.243-4.557-.552-2.072-2.348-1.52-5.524-.277-7.734.138-.138.138-.276.277-.414 1.795.552 3.314 1.519 4.419 2.9zM80.89 21.042c2.623 0 4.833-2.21 4.833-4.833 0-2.624-2.21-4.833-4.833-4.833-2.624 0-4.834 2.21-4.834 4.833 0 2.624 2.072 4.833 4.834 4.833zm0-6.904c1.104 0 2.07.966 2.07 2.07 0 1.106-.966 2.072-2.07 2.072-1.105 0-2.072-.966-2.072-2.071 0-1.105.829-2.071 2.072-2.071zM46.917 45.76a3.713 3.713 0 0 0-3.728-3.728 3.713 3.713 0 0 0-3.73 3.728 3.713 3.713 0 0 0 3.73 3.729c2.07 0 3.728-1.795 3.728-3.729zm-4.695 0c0-.552.414-.966.967-.966.552 0 .966.414.966.966a.944.944 0 0 1-.966.967c-.553 0-.967-.552-.967-.967zm8.562-34.8 4.695 2.486.552 5.248c0 .552.415.966.829 1.104.138 0 .276.139.414.139.415 0 .69-.139.967-.415l3.867-3.59 5.247 1.104c.553.139 1.105-.138 1.381-.552.276-.414.414-.967.138-1.38l-2.21-4.834 2.625-4.557c.276-.415.276-.967 0-1.52-.277-.414-.83-.69-1.381-.552l-5.248.829L59.07.466c-.415-.414-.83-.552-1.381-.414-.553.138-.83.552-.967 1.105l-.967 5.247-4.833 2.21c-.414.276-.829.69-.829 1.243 0 .552.276.828.69 1.104zm6.766-2.347c.415-.138.69-.553.829-.967l.552-3.176 2.21 2.347c.276.277.69.553 1.243.415l3.176-.415-1.657 2.762c-.276.415-.276.829 0 1.243l1.38 2.9-3.175-.552c-.415-.138-.967 0-1.243.414l-2.348 2.21-.276-3.177c0-.414-.276-.828-.69-1.104l-2.9-1.52 2.9-1.38zm6.629 17.262c-.552-.139-1.105 0-1.381.276-.414.414-.552.966-.276 1.38l1.105 3.315-2.072 2.762c-.276.414-.414.967-.138 1.519.276.414.69.69 1.243.829h3.452l1.934 2.9c.276.414.69.552 1.104.552h.139c.552-.138.966-.414 1.104-.967l1.105-3.314 3.314-.967c.553-.138.829-.552.967-1.104.138-.553-.138-1.105-.552-1.381l-2.762-2.072.138-3.452c0-.553-.276-.967-.69-1.243-.415-.276-.967-.138-1.52.138l-2.762 2.071-3.452-1.242zm4.28 3.728 1.106-.828v1.38c0 .415.138.83.552 1.105l1.105.829-1.381.414c-.414.138-.829.414-.967.967l-.414 1.38-.829-1.104c-.276-.414-.69-.552-1.104-.552h-1.381l.828-1.105c.276-.414.415-.829.276-1.243l-.414-1.38 1.381.413c.414.138.967 0 1.243-.276z" fill="#7F8D16" fill-rule="nonzero"/>
</svg>
