<?xml version="1.0" encoding="UTF-8"?>
<svg width="87px" height="80px" viewBox="0 0 87 80" version="1.1" xmlns="http://www.w3.org/2000/svg" xmlns:xlink="http://www.w3.org/1999/xlink">
    <title>img-artupload</title>
    <g id="UI-Designs" stroke="none" stroke-width="1" fill="none" fill-rule="evenodd">
        <g id="1440-MyProfile-Edit-WorkTab-Copy-3" transform="translate(-921.000000, -462.000000)" fill="#BE2926" fill-rule="nonzero">
            <g id="Group-12" transform="translate(668.000000, 430.000000)">
                <g id="img-artupload" transform="translate(253.000000, 32.000000)">
                    <g id="Group">
                        <path d="M70.0917255,64.5500717 L16.5718138,64.5500717 C16.0904094,64.5500717 15.700154,64.1632518 15.700154,63.6860852 L15.700154,15.8212335 C15.700154,15.3440669 16.0904094,14.957247 16.5718138,14.957247 L70.0917255,14.957247 C70.5731299,14.957247 70.9633853,15.3440669 70.9633853,15.8212335 L70.9633853,63.6860852 C70.9633853,64.1632518 70.5731299,64.5500717 70.0917255,64.5500717 L70.0917255,64.5500717 Z M17.4434736,62.8220987 L69.2200657,62.8220987 L69.2200657,16.68522 L17.4434736,16.68522 L17.4434736,62.8220987 Z" id="Shape"></path>
                        <path d="M37.5404619,8.90936801 C37.4567826,8.90936801 37.36613,8.90936801 37.2876806,8.90936801 C36.3349666,8.8652586 35.4541891,8.39409272 34.8941028,7.62891357 C34.434684,6.98032219 34.3094347,6.15545094 34.5558988,5.4015564 C34.8766696,4.35094882 35.8459553,3.7254226 37.1429851,3.7254226 C37.6243895,3.7254226 38.0146449,4.11224253 38.0146449,4.58940909 C38.0146449,5.06657566 37.6243895,5.45339559 37.1429851,5.45339559 C36.6199892,5.45339559 36.3149083,5.60545721 36.2225123,5.90439653 C36.1339962,6.15060801 36.1723983,6.42415281 36.3253682,6.63705708 C36.5817223,6.96457133 36.9709177,7.16314764 37.3887931,7.1796406 C38.1545291,7.22684028 38.894599,6.89722524 39.3674609,6.29837438 C39.986409,5.53295639 40.2048012,4.52297798 39.9567029,3.57336098 C39.608039,2.26528543 37.9780352,1.44622623 36.4700637,1.8194684 C35.8854191,1.93699659 35.3867359,2.31232866 35.1155044,2.83897246 C34.9862676,3.11986456 34.7156627,3.31107949 34.4056242,3.34058843 C34.0955856,3.37009737 33.7932155,3.2334172 33.6124138,2.98203404 C33.431612,2.73065087 33.3998467,2.40275578 33.5290835,2.12186367 C34.019177,1.1157826 34.9464297,0.387002804 36.046437,0.143334601 C38.4870845,-0.461455944 41.0445343,0.907098661 41.6390063,3.12927192 C42.0264798,4.61515587 41.6840265,6.19514669 40.7150469,7.39218128 C39.948137,8.35438703 38.7775912,8.91380049 37.5404619,8.90936801 L37.5404619,8.90936801 Z" id="Path"></path>
                        <path d="M49.3898053,8.90938636 C48.1504091,8.91515143 46.977171,8.35568023 46.208247,7.39218128 C45.2406421,6.19448534 44.8989232,4.61490232 45.2860309,3.12927192 C45.8805029,0.907098661 48.4414394,-0.461455944 50.8786002,0.143334601 C51.9786076,0.387002804 52.9058603,1.1157826 53.3959537,2.12186367 C53.5251906,2.40275578 53.4934253,2.73065089 53.3126235,2.98203407 C53.1318218,3.23341725 52.8294517,3.37009742 52.5194131,3.34058848 C52.2093745,3.31107953 51.9387697,3.11986458 51.8095329,2.83897246 C51.5378992,2.31266231 51.0394019,1.93747018 50.4549735,1.8194684 C48.9487454,1.44449826 47.3169983,2.26528543 46.9683343,3.57336098 C46.720236,4.52297798 46.9386282,5.53295639 47.5575764,6.29837438 C48.0318803,6.89947856 48.7748806,7.22988318 49.5432174,7.18136857 C49.9610929,7.16487562 50.3502883,6.96629931 50.6066424,6.63878505 C50.7596123,6.42588078 50.7980143,6.15233598 50.7094982,5.90612451 C50.6171023,5.60718518 50.3067914,5.45512356 49.7890255,5.45512356 C49.307621,5.45512356 48.9173657,5.06830363 48.9173657,4.59113707 C48.9173657,4.1139705 49.307621,3.72715057 49.7890255,3.72715057 C51.0860552,3.72715057 52.0553409,4.35267679 52.3761117,5.39810045 C52.6225758,6.15199499 52.4973266,6.97686624 52.0379077,7.62545763 C51.4785406,8.39194265 50.5976508,8.86444042 49.6443299,8.90938636 C49.5589073,8.90938636 49.4752279,8.90938636 49.3898053,8.90938636 Z" id="Path"></path>
                        <path d="M40.5145652,3.52670571 C40.4008553,3.52679735 40.2882619,3.50447691 40.1833345,3.46104273 C39.9694339,3.37381187 39.7992814,3.20589088 39.7103441,2.99425564 C39.6214069,2.78262039 39.6209778,2.54462529 39.7091515,2.33267637 C39.7440179,2.24973367 40.6017312,0.269476629 43.4189356,0.269476629 C46.208247,0.269476629 47.1635861,2.20999029 47.2036825,2.292933 C47.3688422,2.57455399 47.3601617,2.92431113 47.1812314,3.19754198 C47.002301,3.47077284 46.6835397,3.62102712 46.3567896,3.58615843 C46.0300395,3.55128974 45.7508495,3.33722589 45.6346949,3.03250543 C45.619005,3.00312989 45.0733459,1.99572164 43.4259089,1.99572164 C41.7784719,1.99572164 41.3339254,2.98066624 41.3339254,2.99103408 C41.1978229,3.31952801 40.872795,3.53202091 40.5145652,3.52670571 L40.5145652,3.52670571 Z" id="Path"></path>
                        <path d="M12.6109917,9.46229358 C11.6301801,9.45924007 10.6837559,9.10377168 9.94719931,8.46179655 C8.77786507,7.45611138 8.15564926,5.96261821 8.26838254,4.43216355 C8.45317442,2.1391434 10.7229765,0.336867576 13.2316134,0.501025009 C14.3598135,0.542991861 15.4066433,1.09426433 16.0732244,1.99744961 C16.3481063,2.38920336 16.2505424,2.92765669 15.8553094,3.2001188 C15.4600764,3.4725809 14.9168409,3.37587593 14.641959,2.98412219 C14.279905,2.51413735 13.7217153,2.23304778 13.1252709,2.22035813 C11.5737165,2.11840772 10.1215313,3.21567057 10.0134455,4.5634895 C9.93825018,5.5438884 10.3351608,6.50180019 11.0838437,7.14680911 C11.657355,7.65188293 12.4445056,7.8456465 13.1897738,7.66520101 C13.5952355,7.57181147 13.9391869,7.30728003 14.1311664,6.94118033 C14.2435564,6.70401811 14.2325008,6.42748336 14.1015299,6.19987992 C13.9568344,5.92167626 13.6238604,5.82836572 13.1130677,5.91994829 C12.6500452,5.98427057 12.2182883,5.67504167 12.1345273,5.21910715 C12.0507663,4.76317263 12.3448369,4.32293723 12.8010135,4.22135085 C14.0753801,3.98980247 15.1422917,4.43389152 15.6495977,5.40674031 C16.0260682,6.10361813 16.0512345,6.93511139 15.7175872,7.6531052 C15.3086435,8.50342904 14.5329489,9.12424077 13.6081705,9.3413348 C13.2820073,9.4218615 12.9471205,9.46248337 12.6109917,9.46229358 L12.6109917,9.46229358 Z" id="Path"></path>
                        <path d="M2.01858177,16.5798136 C1.84084332,16.5793965 1.66748113,16.5251325 1.52173569,16.4242961 C0.610947083,15.7661139 0.0541092286,14.7309952 0.0102775929,13.614612 C-0.15359445,11.1315148 1.66294457,8.87823804 3.97458636,8.69680088 C5.51816031,8.58574 7.02438592,9.20162055 8.04000767,10.3591109 C8.91896411,11.346077 9.25147006,12.6986428 8.92910067,13.9757583 C8.71426231,14.8972358 8.08810891,15.6717656 7.22762074,16.0804294 C6.50270333,16.4092543 5.66445556,16.3836891 4.96130526,16.0113105 C3.97981632,15.5084704 3.5335265,14.4561348 3.76538801,13.1895306 C3.82113113,12.8857968 4.03611911,12.6346119 4.32936807,12.5305949 C4.62261703,12.426578 4.94957547,12.4855316 5.18708131,12.6852485 C5.42458716,12.8849654 5.53655761,13.1951039 5.4808145,13.4988378 C5.38667524,14.0051339 5.4808145,14.3334488 5.76323227,14.4768705 C5.99194593,14.6072266 6.27042465,14.6188353 6.50937306,14.507974 C6.87575474,14.3157848 7.1397824,13.9752551 7.2328507,13.5748686 C7.41645204,12.8361589 7.22078818,12.0552215 6.70985482,11.4874773 C6.06025074,10.7469109 5.09614482,10.3536468 4.10882197,10.4265018 C2.74728937,10.5336362 1.64376806,11.9816775 1.74313728,13.5092056 C1.75669896,14.1002104 2.04012744,14.6531789 2.51368454,15.0125421 C2.8273928,15.2279657 2.96324029,15.6206175 2.84892917,15.9815291 C2.73461805,16.3424406 2.39673268,16.5876777 2.01509513,16.5867283 L2.01858177,16.5798136 Z" id="Path"></path>
                        <path d="M2.13015423,11.1090551 C1.77572336,11.1101092 1.45593666,10.8983394 1.32125393,10.5733795 C1.26546771,10.4385976 -0.0228454795,7.24011965 3.24936541,4.0070822 C6.5215763,0.774044741 9.8216803,1.91277894 9.96114587,1.96289015 C10.3994101,2.1337464 10.6215086,2.61875886 10.462725,3.05822477 C10.3039415,3.49769068 9.82169948,3.73267848 9.37364717,3.58891273 C9.28299455,3.55953719 6.92253981,2.80786894 4.48189237,5.2287591 C2.04124493,7.64964925 2.89721485,9.82516724 2.93382456,9.91847778 C3.04335286,10.1843694 3.01242306,10.4868273 2.85129458,10.7255263 C2.6901661,10.9642252 2.41990399,11.107959 2.13015423,11.1090551 L2.13015423,11.1090551 Z" id="Path"></path>
                        <path d="M25.09316,5.64174464 C19.5145373,5.64174464 15.3846131,3.58891273 15.1266018,3.45758679 C14.6981519,3.23952166 14.5291714,2.71847523 14.7491732,2.29379699 C14.969175,1.86911876 15.494849,1.70162573 15.9232989,1.91969083 L15.9232989,1.91969083 C16.0122082,1.96461813 24.8142289,6.322566 33.7923248,1.91969083 C34.0725975,1.78264016 34.4053451,1.80420753 34.6652249,1.97626872 C34.9251047,2.14832991 35.0726347,2.44474473 35.0522418,2.75385658 C35.031849,3.06296844 34.8466314,3.33781587 34.5663587,3.47486652 C31.620923,4.91566082 28.3777092,5.65750624 25.09316,5.64174464 Z" id="Path"></path>
                        <path d="M74.2146764,9.46229291 C73.8808807,9.46192089 73.54837,9.4213032 73.2244708,9.3413348 C72.2951567,9.12876556 71.5138135,8.50881207 71.1011076,7.65656114 C70.7674602,6.93856733 70.7926266,6.10707407 71.169097,5.41019626 C71.676403,4.43734747 72.7380847,3.99325841 74.0176813,4.22480679 C74.334501,4.26881883 74.6015386,4.48131969 74.7133688,4.77841492 C74.8251989,5.07551015 74.7638493,5.40945318 74.5535405,5.64840468 C74.3432316,5.88735619 74.0177625,5.99291396 73.7056271,5.92340424 C73.1948344,5.83182167 72.8618604,5.92340424 72.7171648,6.20333586 C72.586194,6.4309393 72.5751384,6.70747405 72.6875284,6.94463627 C72.8810336,7.31126875 73.2270683,7.57530043 73.6341509,7.66692898 C74.3794202,7.8479886 75.1668587,7.65415418 75.740081,7.14853708 C76.4878709,6.50499381 76.885295,5.54932418 76.8122226,4.57040139 C76.7041368,3.22258246 75.2432349,2.12877556 73.7003971,2.22727002 C73.1039527,2.23995967 72.5457631,2.52104925 72.183709,2.99103408 C71.9069015,3.38278783 71.362105,3.47794553 70.966872,3.20357476 C70.5716389,2.92920398 70.4756361,2.38920336 70.7524437,1.99744961 C71.416445,1.0941647 72.4604526,0.541116712 73.5870813,0.49584109 C76.0922316,0.33341163 78.3655203,2.13395948 78.5503122,4.42697963 C78.6633251,5.95747883 78.0410595,7.45109145 76.8714954,8.45661263 C76.1369246,9.09795581 75.1935535,9.45504814 74.2146764,9.46229291 L74.2146764,9.46229291 Z" id="Path"></path>
                        <path d="M84.8070863,16.5798164 C84.4254487,16.5807658 84.0875633,16.3355287 83.9732522,15.9746172 C83.8589411,15.6137057 83.9947886,15.2210538 84.3084969,15.0056302 C84.7822012,14.64658 85.0651709,14.0932548 85.0773008,13.5022938 C85.1784133,11.9678537 84.074892,10.5267243 82.7133594,10.4195899 C81.7260366,10.3467349 80.7619307,10.739999 80.1123266,11.4805654 C79.6013932,12.0483096 79.4057294,12.8292471 79.5893307,13.5679567 C79.681748,13.9718967 79.9480581,14.315431 80.3180383,14.507974 C80.5569867,14.6188353 80.8354654,14.6072266 81.0641791,14.4768705 C81.3448535,14.3334488 81.4407361,14.0051339 81.3465969,13.4988378 C81.2604255,13.0293059 81.5745811,12.5794343 82.048283,12.4940215 C82.5219849,12.4086087 82.975852,12.7199987 83.0620233,13.1895306 C83.2938849,14.4544069 82.847595,15.5084704 81.8661061,16.0113105 C81.1629558,16.3836891 80.324708,16.4092543 79.5997906,16.0804294 C78.7399706,15.6713566 78.1145111,14.8968916 77.900054,13.9757583 C77.5776846,12.6986428 77.9101906,11.346077 78.789147,10.3591109 C79.8047688,9.20162055 81.3109944,8.58574 82.8545683,8.69680088 C85.1662101,8.86959818 86.9827491,11.1315148 86.8188771,13.614612 C86.774633,14.7312966 86.2171228,15.7664712 85.3056757,16.4242961 C85.1594423,16.5254691 84.9854197,16.5798164 84.8070863,16.5798164 L84.8070863,16.5798164 Z" id="Path"></path>
                        <path d="M84.6990005,11.1055952 C84.4090918,11.1054172 84.1382444,10.9623832 83.9763848,10.7239834 C83.8145251,10.4855835 83.7828378,10.18302 83.8918435,9.91674981 C83.9336831,9.80788751 84.7513,7.60644993 82.3437757,5.22011923 C79.9031282,2.80095705 77.5426735,3.55089733 77.4433043,3.58372882 C76.9889217,3.73733126 76.4947717,3.4978392 76.3380396,3.04805719 C76.1825182,2.60310867 76.4151093,2.11666178 76.8610355,1.95425029 C77.0005011,1.90413907 80.3250116,0.777500687 83.572816,3.99844233 C86.8206204,7.21938398 85.5567137,10.4385976 85.5009275,10.5733795 C85.366128,10.8946588 85.0500439,11.1044346 84.6990005,11.1055952 L84.6990005,11.1055952 Z" id="Path"></path>
                        <path d="M61.732508,5.64174464 C58.4469876,5.65374634 55.2037241,4.90774841 52.2593093,3.46277071 C51.9790367,3.32572006 51.7938191,3.05087262 51.7734262,2.74176077 C51.7530333,2.43264892 51.9005634,2.1362341 52.1604432,1.96417291 C52.420323,1.79211172 52.7530706,1.77054435 53.0333432,1.90759502 C62.0410756,6.32774992 70.8152032,1.95770624 70.9006258,1.90759502 C71.1777843,1.76622295 71.5099803,1.78215042 71.7720787,1.94937772 C72.0341771,2.11660502 72.186359,2.40972633 72.1712989,2.7183257 C72.1562388,3.02692507 71.9762247,3.30411891 71.6990662,3.44549098 C71.4410549,3.58891273 67.3198474,5.64174464 61.732508,5.64174464 Z" id="Path"></path>
                        <path d="M2.54157765,49.9262363 C2.41702519,49.9265413 2.29389404,49.9000092 2.1807105,49.8484775 C1.16552884,49.3629031 0.430203109,48.4437213 0.184609553,47.3532845 C-0.423808988,44.9341224 0.956900136,42.400914 3.19880914,41.8099472 C4.70008778,41.4249729 6.29661454,41.7643944 7.50655187,42.7257729 C8.548432,43.5415901 9.11881572,44.8131713 9.03195652,46.1264237 C8.98696168,47.0701344 8.51166722,47.9424198 7.7401567,48.4972027 C7.08567985,48.9521345 6.25396831,49.0768483 5.49301774,48.8341574 C4.43656606,48.5127544 3.80722768,47.5537294 3.80722768,46.2681175 C3.80722768,45.7909509 4.19748307,45.404131 4.67888748,45.404131 C5.1602919,45.404131 5.55054728,45.7909509 5.55054728,46.2681175 C5.55054728,46.7865094 5.70221609,47.0906326 6.00381038,47.1822152 C6.25303275,47.2697597 6.52968977,47.2310461 6.74472121,47.0785368 C7.07394084,46.8242083 7.27403796,46.4395382 7.29212356,46.0262013 C7.34002327,45.2666665 7.00748209,44.532468 6.40303057,44.063224 C5.6300953,43.4497781 4.61039142,43.2339257 3.65207224,43.4808971 C2.33412262,43.8264917 1.50604581,45.4421464 1.88260284,46.936843 C2.0030833,47.5150558 2.38126381,48.0080807 2.91116141,48.2777501 C3.28430795,48.4462639 3.48850541,48.849783 3.40164232,49.2470004 C3.31477924,49.6442177 2.96034523,49.9277172 2.55029425,49.9279643 L2.54157765,49.9262363 Z" id="Path"></path>
                        <path d="M4.4139029,38.3488533 C4.00207163,38.3492422 3.59190778,38.2969711 3.19357918,38.1932997 C0.955156816,37.602333 -0.425552307,35.0639407 0.184609553,32.6499624 C0.431056708,31.5589852 1.16684948,30.6393857 2.18245381,30.1530414 C2.61799758,29.9682197 3.12272523,30.1620691 3.31891934,30.5895207 C3.51511344,31.0169723 3.3309228,31.5214826 2.90418813,31.7254969 C2.37453757,31.9963156 1.99656943,32.4896985 1.87562957,33.0681319 C1.49907253,34.5611005 2.32714934,36.1784832 3.64509896,36.5240778 C4.60369178,36.770571 5.62342545,36.5540718 6.39605729,35.940023 C7.00071765,35.4717051 7.33338281,34.7378793 7.28515028,33.9787736 C7.26637023,33.5657015 7.06561253,33.1816184 6.73600461,32.9281661 C6.52097317,32.7756568 6.24431615,32.7369432 5.99509378,32.8244877 C5.69349949,32.9160702 5.54183068,33.2236494 5.54183068,33.7385854 C5.54183068,34.2157519 5.1515753,34.6025719 4.67017088,34.6025719 C4.18876647,34.6025719 3.79851108,34.2157519 3.79851108,33.7385854 C3.79851108,32.4529735 4.42784946,31.4922205 5.48430114,31.1725455 C6.24653376,30.931511 7.07873287,31.0594975 7.7314401,31.5181401 C8.50295062,32.072923 8.97824508,32.9452083 9.02323993,33.888919 C9.10806538,35.1964777 8.54148357,36.4623238 7.50655187,37.2774741 C6.62977313,37.9749326 5.53811359,38.353101 4.4139029,38.3488533 L4.4139029,38.3488533 Z" id="Path"></path>
                        <path d="M2.72636953,43.7902068 C2.61207748,43.7904792 2.49887798,43.7681561 2.39339549,43.7245413 C2.30797283,43.6899818 0.311871884,42.8398191 0.311871884,40.0474148 C0.311871884,37.282658 2.26961979,36.3357288 2.35329914,36.2959854 C2.77753209,36.137109 3.25379721,36.3272079 3.44856171,36.7331541 C3.64332621,37.1391003 3.49151373,37.6252556 3.09943992,37.8511611 C3.06980349,37.8667128 2.05344816,38.4075684 2.05344816,40.0405029 C2.05344816,41.6734373 3.04714034,42.1140704 3.05760025,42.1140704 C3.44183075,42.2716823 3.66023637,42.6763679 3.57925547,43.0806497 C3.49827457,43.4849315 3.14046002,43.7762188 2.72462621,43.7763805 L2.72636953,43.7902068 Z" id="Path"></path>
                        <path d="M2.750776,31.7652487 C2.57446384,31.7660196 2.4021929,31.7129228 2.25741656,31.6131786 C2.06478211,31.483067 1.93275203,31.281897 1.8908219,31.0546102 C1.84889176,30.8273234 1.90055559,30.5928594 2.03427165,30.4035975 C7.05154546,23.2048621 1.48861261,16.4346639 1.43282639,16.367273 C1.1386693,15.9998061 1.1940668,15.4668212 1.55763066,15.1665184 C1.92119452,14.8662156 2.46008769,14.9083179 2.77169584,15.2613703 C3.91518894,16.7292278 4.77460305,18.3942579 5.30648254,20.1722695 C6.13107271,22.9024668 6.48147995,27.0616978 3.46902368,31.3868142 C3.30730425,31.6227364 3.03853411,31.7643445 2.750776,31.7652487 L2.750776,31.7652487 Z" id="Path"></path>
                        <path d="M2.27659307,65.0684745 C1.94054406,65.0682654 1.63453867,64.8766079 1.49008879,64.5758597 C1.34563891,64.2751116 1.38847409,63.9188422 1.60018507,63.6601656 C2.57328,62.355582 3.29761826,60.8856927 3.7374949,59.3229534 C4.69980732,55.9153907 4.12799849,52.6650735 2.03427165,49.6618564 C1.76486164,49.2692016 1.86564178,48.7346334 2.2599276,48.4649094 C2.65421341,48.1951854 3.19420749,48.2914112 3.46902368,48.6803678 C6.47799331,53.0003003 6.17814234,57.1474354 5.39713516,59.858625 C4.89628499,61.6250153 4.06869193,63.2837946 2.95648772,64.7505166 C2.7899805,64.9528997 2.5400558,65.0697749 2.27659307,65.0684745 Z" id="Path"></path>
                        <path d="M84.2840904,49.9262542 C83.8740394,49.9259893 83.5196054,49.6424897 83.4327423,49.2452724 C83.3458792,48.848055 83.5500767,48.4445359 83.9232232,48.2760221 C84.4531208,48.0063527 84.8313013,47.5133279 84.9517818,46.9351151 C85.3283388,45.4421464 84.500262,43.8247637 83.1823124,43.4791691 C82.2239932,43.2321977 81.2042893,43.4480501 80.4313541,44.061496 C79.8269025,44.53074 79.4943614,45.2649385 79.5422611,46.0244733 C79.5603467,46.4378102 79.7604438,46.8224803 80.0896634,47.0768089 C80.3046949,47.2293181 80.5813519,47.2680317 80.8305743,47.1804872 C81.1321686,47.0889047 81.2838374,46.7813255 81.2838374,46.2663895 C81.2838374,45.789223 81.6740927,45.402403 82.1554972,45.402403 C82.6369016,45.402403 83.027157,45.789223 83.027157,46.2663895 C83.027157,47.5520014 82.3978186,48.5127544 81.3413669,48.8324294 C80.5804163,49.0751203 79.7487048,48.9504066 79.0942279,48.4954747 C78.3227174,47.9406918 77.847423,47.0684064 77.8024281,46.1246957 C77.71698,44.8114216 78.2886609,43.540501 79.3313194,42.7257729 C80.5391067,41.7655767 82.1330025,41.4261652 83.6320889,41.8099472 C85.8739979,42.400914 87.254707,44.9393063 86.6462884,47.3532845 C86.4003147,48.4440661 85.6642943,49.3633134 84.6484442,49.8484775 C84.5341931,49.9005012 84.4098178,49.9270448 84.2840904,49.9262542 L84.2840904,49.9262542 Z" id="Path"></path>
                        <path d="M82.4117651,38.3488278 C81.2905426,38.3511243 80.2022823,37.9730679 79.3278328,37.2774741 C78.2859526,36.4616569 77.7155689,35.1900757 77.8024281,33.8768232 C77.847423,32.9331125 78.3227174,32.0608272 79.0942279,31.5060443 C79.7469352,31.0474017 80.5791343,30.9194152 81.3413669,31.1604497 C82.3978186,31.4818527 83.027157,32.4408777 83.027157,33.7264896 C83.027157,34.2036561 82.6369016,34.5904761 82.1554972,34.5904761 C81.6740927,34.5904761 81.2838374,34.2036561 81.2838374,33.7264896 C81.2838374,33.2080977 81.1321686,32.9039744 80.8305743,32.8123919 C80.5813214,32.7251484 80.3048082,32.7638419 80.0896634,32.9160702 C79.7602576,33.1702457 79.5601128,33.5550074 79.5422611,33.9684058 C79.4940286,34.7275115 79.8266937,35.4613372 80.4313541,35.9296551 C81.2039859,36.5437039 82.2237196,36.7602032 83.1823124,36.51371 C84.500262,36.1681154 85.3283388,34.5524607 84.9517818,33.057764 C84.8308419,32.4793307 84.4528738,31.9859478 83.9232232,31.715129 C83.632652,31.591826 83.4321916,31.3222692 83.3993395,31.0106685 C83.3664874,30.6990678 83.5063919,30.3942553 83.7649664,30.2140706 C84.0235409,30.0338859 84.3602633,30.0065663 84.6449575,30.1426736 C85.6605619,30.6290179 86.3963547,31.5486173 86.6428018,32.6395946 C87.2512203,35.0587567 85.8705112,37.5919651 83.6286022,38.1829319 C83.2318631,38.2898086 82.8228826,38.3455629 82.4117651,38.3488278 L82.4117651,38.3488278 Z" id="Path"></path>
                        <path d="M84.4322726,43.7245413 L83.7663245,42.1278942 L83.7506346,42.1278942 C83.8552338,42.079511 84.7704766,41.6095023 84.7704766,40.0405029 C84.7704766,38.3885607 83.736688,37.856345 83.7244848,37.8511611 C83.332411,37.6252556 83.1805985,37.1391003 83.375363,36.7331541 C83.5701275,36.3272079 84.0463926,36.137109 84.4706256,36.2959854 C84.5543049,36.3357288 86.512054,37.2861139 86.512054,40.0474148 C86.5137962,42.8398191 84.5176952,43.6899818 84.4322726,43.7245413 Z" id="Path"></path>
                        <path d="M84.074892,31.7653138 C83.788432,31.7659085 83.5199262,31.6270236 83.3566444,31.393726 C80.3441881,27.0737936 80.6945953,22.9093787 81.5191855,20.1791814 C82.0502383,18.4008421 82.9097273,16.7356669 84.0539722,15.2682821 C84.3642372,14.9113295 84.9058252,14.8665888 85.2714236,15.1677082 C85.637022,15.4688276 85.6918109,16.0047648 85.394585,16.3724569 C84.3914913,17.6811014 83.6365815,19.1594795 83.1666225,20.7355887 C82.1502672,24.1552472 82.6959262,27.4107483 84.7861664,30.4122374 C84.9198825,30.6014992 84.9715463,30.8359632 84.9296162,31.0632501 C84.8876861,31.2905369 84.755656,31.4917068 84.5630215,31.6218185 C84.4187066,31.7174929 84.2484964,31.7675038 84.074892,31.7653138 L84.074892,31.7653138 Z" id="Path"></path>
                        <path d="M84.9099421,65.0684654 C84.6569222,65.0684654 84.4164423,64.9592475 84.2509673,64.7695243 C83.0752435,63.3169697 82.1820336,61.660533 81.6168114,59.8845446 C80.7451516,57.1629872 80.3389581,53.0106681 83.360131,48.6820958 C83.6349472,48.2931392 84.1749413,48.1969134 84.5692271,48.4666374 C84.9635129,48.7363614 85.064293,49.2709296 84.794883,49.6635844 C82.7028995,52.6581616 82.1921069,55.9015669 83.2625051,59.3039457 C83.7601032,60.877701 84.5435042,62.3481409 85.5741469,63.6428859 C85.7955189,63.8994187 85.8458823,64.2602503 85.7030918,64.5667204 C85.5603014,64.8731905 85.2505126,65.0691616 84.9099421,65.0684654 Z" id="Path"></path>
                        <path d="M37.3957664,79.9998782 C37.000236,79.9998782 36.6062082,79.9516412 36.2225123,79.8564564 C35.1219291,79.6128851 34.1944248,78.8832709 33.7051588,77.8761994 C33.5186957,77.4444897 33.7142667,76.9442052 34.1455146,76.7497382 C34.5767625,76.5552713 35.0857535,76.7378405 35.2915797,77.1608185 C35.5628112,77.6874623 36.0614944,78.0627944 36.646139,78.1803226 C38.1523671,78.5535648 39.7841143,77.7345056 40.1327782,76.42643 C40.3761013,75.478656 40.1573653,74.4726299 39.5417928,73.7083285 C39.0681771,73.1106102 38.3284385,72.7817887 37.5631251,72.8287903 C37.1456644,72.8453307 36.7567074,73.0431534 36.4997001,73.3696458 C36.3467087,73.5831951 36.3083251,73.8572528 36.3968443,74.1040343 C36.4892402,74.4029737 36.7978078,74.5550353 37.317317,74.5550353 C37.7987215,74.5550353 38.1889768,74.9418552 38.1889768,75.4190218 C38.1889768,75.8961883 37.7987215,76.2830083 37.317317,76.2830083 C36.0202873,76.2830083 35.0510016,75.657482 34.7302308,74.6103304 C34.4840706,73.8569774 34.6093178,73.0327597 35.0684348,72.3847012 C35.6277856,71.6193295 36.507874,71.1475533 37.4602692,71.1025452 C38.7857691,71.0153399 40.0693855,71.5816759 40.8911222,72.6162496 C41.8601018,73.8132842 42.2025551,75.393275 41.8150816,76.8791589 C41.3147489,78.7367299 39.4302204,79.9998782 37.3957664,79.9998782 Z" id="Path"></path>
                        <path d="M49.884908,79.9998782 C47.8504541,79.9998782 45.9641823,78.7367299 45.4655928,76.8705191 C45.0770368,75.3857008 45.4167989,73.806206 46.382579,72.6076097 C47.2043157,71.573036 48.487932,71.0067 49.8134319,71.0939054 C50.7664493,71.1383975 51.6472829,71.6102293 52.2070097,72.3760613 C52.6661267,73.0241198 52.7913739,73.8483376 52.5452137,74.6016905 C52.2226996,75.6488422 51.2551572,76.2743684 49.9581275,76.2743684 C49.476723,76.2743684 49.0864677,75.8875485 49.0864677,75.4103819 C49.0864677,74.9332153 49.476723,74.5463954 49.9581275,74.5463954 C50.4811233,74.5463954 50.7862043,74.3943338 50.8786002,74.0953945 C50.9671194,73.848613 50.9287358,73.5745552 50.7757444,73.3610059 C50.5187371,73.0345135 50.1297801,72.8366908 49.7123194,72.8201504 C48.9473088,72.7772271 48.2097585,73.1091737 47.7388816,73.7083285 C47.1193793,74.4741588 46.9009572,75.4849156 47.1496396,76.4350699 C47.4983035,77.7431454 49.1283073,78.5622046 50.6362788,78.1889625 C51.2207071,78.0709607 51.7192044,77.6957686 51.9908381,77.1694584 C52.1152363,76.8814451 52.3871871,76.6827494 52.7015551,76.6501865 C53.0159232,76.6176236 53.3234429,76.7562965 53.5052278,77.0125947 C53.6870128,77.268893 53.714575,77.6026511 53.5772589,77.8848392 C53.087993,78.8919108 52.1604887,79.621525 51.0599054,79.8650963 C50.6752608,79.9574078 50.2806567,80.0026721 49.884908,79.9998782 Z" id="Path"></path>
                        <path d="M43.5932676,79.7303144 C40.7760631,79.7303144 39.9183499,77.7500573 39.8834835,77.6567468 L41.4960541,76.9983891 L41.4960541,76.9828373 C41.5431237,77.0865157 42.01905,77.9937015 43.6002409,77.9937015 C45.2685977,77.9937015 45.8037969,76.9690135 45.8090268,76.9569177 C46.0377044,76.570676 46.5262276,76.4216548 46.9344307,76.6136196 C47.3426338,76.8055844 47.5351877,77.2748943 47.3780145,77.6947622 C47.3379181,77.7880727 46.382579,79.7303144 43.5932676,79.7303144 Z" id="Path"></path>
                        <path d="M13.0991212,79.5074058 C10.7194899,79.5074058 8.62576306,77.7638811 8.44968778,75.5676274 C8.33495601,74.0382936 8.95455261,72.5448841 10.1215313,71.5379944 C11.1197375,70.6622288 12.4902375,70.3323231 13.7825024,70.6567282 C14.7118166,70.8692975 15.4931598,71.489251 15.9058657,72.3415019 C16.2389668,73.0596058 16.2138081,73.8908466 15.8378762,74.5878668 C15.3305702,75.5607156 14.2688886,76.0048046 12.989292,75.7732562 C12.5155901,75.6878434 12.2014346,75.2379718 12.2876059,74.7684399 C12.3737773,74.2989081 12.8276443,73.987518 13.3013462,74.0729308 C13.8121389,74.1662414 14.1451129,74.0729308 14.2898084,73.7947272 C14.4207793,73.5671237 14.4318349,73.290589 14.3194449,73.0534267 C14.1255617,72.6863952 13.7788118,72.4223041 13.371079,72.331134 C12.6258103,72.1503818 11.8385159,72.3441807 11.2651489,72.8495259 C10.512852,73.4939086 10.1131668,74.4535553 10.1877774,75.4363015 C10.2958632,76.7858484 11.7567651,77.8796553 13.2996029,77.7811608 C13.8958565,77.7677185 14.4537361,77.4867851 14.816291,77.0173968 C15.0911729,76.625643 15.6344084,76.5289381 16.0296414,76.8014002 C16.4248744,77.0738623 16.5224383,77.6123156 16.2475563,78.0040694 C15.5838891,78.9074929 14.5395209,79.4600953 13.4129187,79.5039499 C13.3106439,79.5062539 13.2060448,79.5074058 13.0991212,79.5074058 Z" id="Path"></path>
                        <path d="M4.51501544,71.3168139 C4.39298307,71.3168139 4.2709507,71.3168139 4.147175,71.3029901 C1.83553321,71.116369 0.0189941909,68.8700042 0.184609553,66.383451 C0.229619738,65.2669725 0.786962906,64.2321081 1.69781097,63.573767 C2.09304399,63.3013049 2.63627944,63.3980099 2.91116134,63.7897636 C3.18604325,64.1815173 3.08847943,64.7199706 2.69324646,64.9924328 C2.21988918,65.3519607 1.93651289,65.9048274 1.92269919,66.4957693 C1.82332998,68.0319373 2.92685128,69.4730667 4.28838389,69.580201 C5.27423141,69.6537766 6.23741361,69.2625468 6.88767342,68.5244096 C7.39833105,67.956521 7.59395884,67.1757275 7.4106693,66.4370182 C7.3186895,66.0328747 7.05225301,65.6891773 6.6819617,65.4970009 C6.44311542,65.3864919 6.16507199,65.3974384 5.93582091,65.5263764 C5.65514646,65.6715262 5.55926388,65.999841 5.65340314,66.5061371 C5.73957453,66.975669 5.42541894,67.4255406 4.951717,67.5109534 C4.47801506,67.5963662 4.02414804,67.2849762 3.93797665,66.8154443 C3.70611515,65.550568 4.15240496,64.4947766 5.1338939,63.9919364 C5.83710451,63.6193139 6.67572778,63.5943767 7.40020938,63.9245455 C8.26002938,64.3336183 8.88548886,65.1080833 9.09994599,66.0292166 C9.42231538,67.3063321 9.08980943,68.6588979 8.21085299,69.645864 C7.27896232,70.704142 5.9321744,71.3130473 4.51501544,71.3168139 Z" id="Path"></path>
                        <path d="M8.5229072,78.2770891 C7.2241341,78.2770891 5.3117125,77.8727434 3.42369737,76.0013487 C0.151486481,72.7596713 1.43979967,69.5611933 1.49558589,69.4264115 C1.68934595,69.0038193 2.18536332,68.8085034 2.61887237,68.9840968 C3.05238143,69.1596902 3.26843801,69.6434326 3.10815652,70.0795852 C3.06631685,70.1901755 2.24869996,72.3916131 4.65622433,74.7779438 C7.13348148,77.2333934 9.52531597,76.42643 9.54797913,76.4177902 C9.84374766,76.3024855 10.1793884,76.3558836 10.4238954,76.5571424 C10.6684023,76.7584011 10.7830154,77.0756163 10.7229994,77.3849737 C10.6629833,77.6943311 10.437852,77.9467905 10.1354778,78.0438127 C9.61395266,78.2063479 9.06954434,78.2851027 8.5229072,78.2770891 L8.5229072,78.2770891 Z" id="Path"></path>
                        <path d="M34.3536737,78.1751387 C34.219408,78.1751315 34.0869589,78.1443805 33.9666568,78.0852841 C24.9589244,73.6651292 16.1847968,78.0351729 16.0993742,78.0852841 C15.8225271,78.2266562 15.4906189,78.2108934 15.2286762,78.0439334 C14.9667335,77.8769734 14.8145516,77.5841814 14.829456,77.2758494 C14.8443604,76.9675173 15.0240867,76.6904882 15.3009338,76.5491161 C15.6914374,76.3503992 24.9519511,71.7401673 34.7406907,76.5491161 C35.1034114,76.7272966 35.2946291,77.1295554 35.2023261,77.5202445 C35.1100231,77.9109336 34.758496,78.1872345 34.3536737,78.1872345 L34.3536737,78.1751387 Z" id="Path"></path>
                        <path d="M74.0752108,79.5074058 C73.9706116,79.5074058 73.8660125,79.5039499 73.7614133,79.497038 C72.6348111,79.4531834 71.5904428,78.900581 70.9267756,77.9971575 C70.7489581,77.7437372 70.7210469,77.4155379 70.8535557,77.136189 C70.9860645,76.85684 71.2588622,76.6687813 71.5691884,76.6428526 C71.8795147,76.616924 72.1802236,76.7570646 72.358041,77.0104849 C72.7205958,77.4798732 73.2784754,77.7608066 73.8747291,77.7742489 C75.4245402,77.8727434 76.8784687,76.7789365 76.9865545,75.4293896 C77.0618858,74.4481098 76.6642561,73.489382 75.914413,72.844342 C75.3409017,72.3392682 74.553751,72.1455046 73.8084829,72.3259501 C73.4014003,72.4175787 73.0553656,72.6816104 72.8618604,73.0482428 C72.7494704,73.285405 72.7605259,73.5619398 72.8914968,73.7895432 C73.0361923,74.0660189 73.3691664,74.1610574 73.879959,74.0677469 C74.3536609,73.9823341 74.8075279,74.2937242 74.8936993,74.763256 C74.9798707,75.2327879 74.6657151,75.6826595 74.1920132,75.7680723 C72.9159033,75.9978927 71.850735,75.5555316 71.343429,74.5826828 C70.9674971,73.8856627 70.9423384,73.0544219 71.2754395,72.336318 C71.6904815,71.4848292 72.4737989,70.8667441 73.4040328,70.6567282 C74.6919451,70.3374946 76.0558651,70.6670719 77.0510574,71.5379944 C78.2206214,72.5435156 78.842887,74.0371282 78.7298741,75.5676274 C78.5485689,77.7638811 76.4548421,79.5074058 74.0752108,79.5074058 Z" id="Path"></path>
                        <path d="M82.6593165,71.3168139 C81.24037,71.3138212 79.8920839,70.7026357 78.9617356,69.6406801 C78.0827792,68.653714 77.7502733,67.3011482 78.0726427,66.0240326 C78.2870998,65.1028994 78.9125593,64.3284344 79.7723793,63.9193615 C80.4968609,63.5891927 81.3354841,63.61413 82.0386947,63.9867525 C83.0201837,64.4913206 83.4664735,65.5419282 83.234612,66.8102604 C83.1484406,67.2797922 82.6945736,67.5911822 82.2208717,67.5057694 C81.7471697,67.4203566 81.4330142,66.9704851 81.5191855,66.5009532 C81.6133248,65.9946571 81.5191855,65.6663422 81.2367677,65.5211925 C81.007766,65.3913908 80.7292937,65.3804273 80.4906269,65.491817 C80.1203356,65.6839934 79.8538991,66.0276908 79.7619193,66.4318343 C79.5786298,67.1705436 79.7742576,67.9513371 80.2849152,68.5192256 C80.9345193,69.259792 81.8986252,69.6530561 82.8859481,69.580201 C84.2474807,69.4730667 85.351002,68.0250254 85.2498894,66.4957693 C85.2372521,65.9049339 84.9543876,65.3518144 84.4810855,64.9924328 C84.0858525,64.7199706 83.9882887,64.1815173 84.2631706,63.7897636 C84.5380525,63.3980099 85.081288,63.3013049 85.476521,63.573767 C86.3873691,64.2321081 86.9447122,65.2669725 86.9897224,66.383451 C87.1535944,68.8682762 85.3370554,71.119825 83.0254136,71.3029901 C82.9033813,71.313358 82.7813489,71.3168139 82.6593165,71.3168139 Z" id="Path"></path>
                        <path d="M78.6514248,78.2770891 C78.1048815,78.2856615 77.5604753,78.2074905 77.0388541,78.0455407 C76.6005899,77.8746845 76.3784914,77.389672 76.537275,76.9502061 C76.6960585,76.5107402 77.1783005,76.2757524 77.6263528,76.4195181 C77.7170055,76.4488937 80.0774602,77.1988339 82.5181076,74.7796718 C84.9587551,72.3605096 84.1027851,70.1728958 84.0661754,70.0813132 C83.9380667,69.7938551 83.9775285,69.4601179 84.1692238,69.2098113 C84.3609191,68.9595047 84.6746146,68.8321058 84.9883901,68.8771292 C85.3021655,68.9221526 85.5665338,69.1324974 85.6787461,69.4264115 C85.7345323,69.5611933 87.0228455,72.7596713 83.7506346,75.9927088 C81.8643628,77.8727434 79.9501979,78.2770891 78.6514248,78.2770891 Z" id="Path"></path>
                        <path d="M52.8206582,78.1751387 C52.415836,78.1751387 52.0643089,77.8988378 51.9720059,77.5081487 C51.8797028,77.1174596 52.0709205,76.7152008 52.4336413,76.5370203 C62.2223808,71.7332554 71.4828946,76.3434873 71.8733982,76.5370203 C72.301848,76.7550854 72.4708286,77.2761318 72.2508268,77.7008101 C72.030825,78.1254883 71.505151,78.2929813 71.0767011,78.0749162 L71.0767011,78.0749162 C70.9877918,78.0299889 62.1857711,73.6720411 53.2076752,78.0749162 C53.0882518,78.1376087 52.9557577,78.1719195 52.8206582,78.1751387 L52.8206582,78.1751387 Z" id="Path"></path>
                        <path d="M73.9270286,68.178815 L12.5621787,68.178815 C12.0807743,68.178815 11.6905189,67.791995 11.6905189,67.3148285 L11.6905189,12.0196929 C11.6905189,11.5425264 12.0807743,11.1557064 12.5621787,11.1557064 L73.9270286,11.1557064 C74.4084331,11.1557064 74.7986884,11.5425264 74.7986884,12.0196929 L74.7986884,67.3148285 C74.7986884,67.791995 74.4084331,68.178815 73.9270286,68.178815 Z M13.4338385,66.450842 L73.0553688,66.450842 L73.0553688,12.8836794 L13.4338385,12.8836794 L13.4338385,66.450842 Z" id="Shape"></path>
                        <path d="M58.2371522,46.233558 L58.2371522,46.233558 L30.6927026,46.0607607 C30.2112981,46.0607607 29.8210428,45.6739408 29.8210428,45.1967743 L29.8210428,36.7297066 C29.8210428,36.4861752 29.9249979,36.2540097 30.1069472,36.0903566 L35.8599019,30.9064377 C36.0202081,30.7620134 36.2290271,30.6818012 36.4456572,30.6818012 L45.0018698,30.6818012 C45.0374859,30.6820315 45.0730339,30.6849196 45.1082123,30.690441 C45.2922155,30.7157779 45.4632397,30.7987209 45.5963418,30.9271733 L45.6294649,30.9617328 L47.8068711,33.2737607 L53.1815254,33.2737607 C53.3845919,33.2737695 53.5812832,33.3440528 53.7376444,33.4724775 L58.7932712,37.6196127 C58.9931312,37.7837455 59.108812,38.0276209 59.108812,38.2848823 L59.108812,45.3695715 C59.108812,45.8467381 58.7185567,46.233558 58.2371522,46.233558 L58.2371522,46.233558 Z M40.1066284,44.3915388 L57.3654924,44.5004011 L57.3654924,38.690956 L52.8677279,35.0017336 L47.4285707,35.0017336 C47.1866344,35.0018889 46.9555163,34.9023691 46.7905157,34.7269859 L44.937367,32.7553688 L40.1066284,37.1115887 L40.1066284,44.3915388 Z M31.5643624,44.3327878 L38.3633088,44.3759871 L38.3633088,36.7297066 C38.3634442,36.4861752 38.4672639,36.2540097 38.6492132,36.0903566 L42.733811,32.4097742 L36.7821179,32.4097742 L31.5643624,37.1115887 L31.5643624,44.3327878 Z" id="Shape"></path>
                        <path d="M43.4189356,46.0607607 C42.9375312,46.0607607 42.5472758,45.6739408 42.5472758,45.1967743 L42.5472758,38.8032742 C42.5472116,38.5918468 42.6253637,38.3877349 42.7669341,38.2295872 L46.9509011,33.5640601 C47.2705537,33.2071395 47.8215943,33.1746466 48.1816848,33.4914852 C48.5417753,33.8083238 48.5745567,34.3545136 48.2549042,34.7114342 L44.2905954,39.1315891 L44.2905954,45.1967743 C44.2905954,45.6739408 43.9003401,46.0607607 43.4189356,46.0607607 Z" id="Path"></path>
                        <path d="M39.2349686,37.5936931 L30.6927026,37.5936931 C30.2112981,37.5936931 29.8210428,37.2068732 29.8210428,36.7297066 C29.8210428,36.2525401 30.2112981,35.8657201 30.6927026,35.8657201 L39.2349686,35.8657201 C39.716373,35.8657201 40.1066284,36.2525401 40.1066284,36.7297066 C40.1066284,37.2068732 39.716373,37.5936931 39.2349686,37.5936931 L39.2349686,37.5936931 Z" id="Path"></path>
                        <path d="M58.2371522,39.840058 L43.4189356,39.840058 C42.9375312,39.840058 42.5472758,39.4532381 42.5472758,38.9760715 C42.5472758,38.4989049 42.9375312,38.112085 43.4189356,38.112085 L58.2371522,38.112085 C58.7185567,38.112085 59.108812,38.4989049 59.108812,38.9760715 C59.108812,39.4532381 58.7185567,39.840058 58.2371522,39.840058 Z" id="Path"></path>
                        <path d="M31.5207794,46.0607607 L23.3707602,46.0607607 C22.8893558,46.0607607 22.4991004,45.6739408 22.4991004,45.1967743 L22.4991004,42.2592202 C22.4989777,41.8518772 22.7859148,41.4997834 23.1877117,41.4142414 L30.509654,39.8590657 C30.9804675,39.7588607 31.4440909,40.0559384 31.5451858,40.5226073 C31.6462807,40.9892762 31.3465646,41.4488183 30.8757511,41.5490233 L24.24242,42.9504094 L24.24242,44.3327878 L31.5207794,44.3327878 C32.0021838,44.3327878 32.3924392,44.7196077 32.3924392,45.1967743 C32.3924392,45.6739408 32.0021838,46.0607607 31.5207794,46.0607607 Z" id="Path"></path>
                        <path d="M70.0917255,46.233558 L58.2371522,46.233558 C57.7557478,46.233558 57.3654924,45.8467381 57.3654924,45.3695715 C57.3654924,44.892405 57.7557478,44.5055851 58.2371522,44.5055851 L70.0917255,44.5055851 C70.5731299,44.5055851 70.9633853,44.892405 70.9633853,45.3695715 C70.9633853,45.8467381 70.5731299,46.233558 70.0917255,46.233558 Z" id="Path"></path>
                        <path d="M16.5718138,43.8143959 C16.1352553,43.8153071 15.7653464,43.4959682 15.7063221,43.0672251 C15.6472979,42.638482 15.9173647,42.2325832 16.338209,42.1175264 C19.5755535,41.2224364 23.2591878,41.3917777 23.4143432,41.4004176 C23.8957476,41.4242759 24.2664903,41.8304369 24.24242,42.3076034 C24.2183498,42.78477 23.8085817,43.1522489 23.3271772,43.1283906 C23.2923109,43.1283906 19.7655753,42.9676891 16.8054186,43.7867483 C16.7290925,43.8059829 16.6505631,43.815277 16.5718138,43.8143959 L16.5718138,43.8143959 Z" id="Path"></path>
                        <path d="M26.5959015,42.4320175 C26.2494732,42.4318406 25.9360324,42.2283373 25.7974611,41.9136256 C25.7399316,41.7840276 24.5161212,38.9536079 26.2141145,36.7158828 C24.8717584,35.0241973 23.5520655,31.9207578 25.8288409,29.1007059 C28.1544292,26.218447 31.6323518,26.5623136 33.5325702,27.2673266 C34.2054916,26.8318774 35.5705108,26.2011672 37.6415745,26.3860603 C37.7967299,24.3712438 39.05715,21.5356402 43.207994,20.5109522 C47.6987853,19.3964096 50.6781185,21.8795068 51.8984422,23.7094302 C52.7317489,23.6454952 54.2501803,23.6645029 55.5367502,24.4006194 C56.3770302,23.2290537 58.2807352,21.4302338 61.9626262,21.6997976 C64.0894761,21.8570431 65.7247099,22.8488996 66.5667333,24.4922019 C67.3477405,26.0197301 67.361687,28.0120829 66.6626159,29.7417839 C68.0136886,30.1685932 70.1231053,31.2572162 70.9285189,33.9839575 C71.0157149,34.2802833 70.9367953,34.6002085 70.7214885,34.8232205 C70.5061817,35.0462325 70.1871978,35.1384505 69.8846951,35.0651368 C69.5821923,34.991823 69.342128,34.7641157 69.2549321,34.46779 C68.3937322,31.5509716 65.419629,31.2105609 65.2975966,31.1984651 C64.9975334,31.1687538 64.7342783,30.9874245 64.6015516,30.7190314 C64.4688249,30.4506383 64.4854828,30.1333118 64.6455951,29.8800217 C65.5294581,28.4769076 65.6811269,26.5830493 65.0116922,25.2749737 C64.4486,24.1742549 63.3503086,23.5349049 61.8336206,23.4243146 C57.8100389,23.1288313 56.6176083,25.9644349 56.6036618,25.9938105 C56.4949416,26.2636398 56.2566717,26.4612347 55.969532,26.519688 C55.6823923,26.5781413 55.3848392,26.4896245 55.1776263,26.2841099 C53.9677625,25.0831687 51.6212544,25.4806025 51.5968479,25.4840584 C51.2191265,25.5543457 50.8395349,25.3711344 50.6624286,25.0330575 C50.5752626,24.870628 48.4466694,20.9965126 43.628134,22.1905419 C38.9211711,23.3586517 39.3761775,27.1187209 39.3988406,27.2794224 C39.4388012,27.5589968 39.3384122,27.8402851 39.1299803,28.0327647 C38.9215484,28.2252443 38.6313776,28.3046244 38.3528489,28.2453593 C35.5966606,27.6716722 34.311834,28.8345981 34.2577911,28.8847093 C33.9981195,29.1407586 33.6028613,29.2046657 33.2745589,29.0436828 C33.1228901,28.9728359 29.4967853,27.3157098 27.1834002,30.1858729 C24.9083681,33.0059248 27.8650382,35.9953181 27.9923005,36.1197322 C28.1608309,36.2864896 28.2531934,36.5143299 28.2479248,36.7503075 C28.2426562,36.986285 28.1402154,37.2098523 27.9644074,37.3690566 C26.3518368,38.8343777 27.3769087,41.1999727 27.3891119,41.2241644 C27.5066906,41.4911993 27.4805663,41.7989882 27.3196284,42.0427977 C27.1586906,42.2866073 26.8846181,42.4337454 26.5906715,42.4337454 L26.5959015,42.4320175 Z" id="Path"></path>
                        <path d="M70.0917255,41.2224364 C70.0331733,41.2225656 69.9747605,41.2167758 69.9173936,41.2051567 C64.2446316,40.0543266 58.4690137,41.1930608 58.4114842,41.2051567 C57.9397079,41.30059 57.4792065,40.9988704 57.3829256,40.5312472 C57.2866448,40.063624 57.591044,39.6071764 58.0628203,39.5117431 C58.312115,39.4616319 64.2341717,38.2883383 70.2660575,39.5117431 C70.7049195,39.6000722 71.0048534,40.0036511 70.9598483,40.4452799 C70.9148431,40.8869086 70.5395434,41.2228825 70.0917255,41.2224364 L70.0917255,41.2224364 Z" id="Path"></path>
                        <path d="M16.5718138,37.2774754 C16.2308725,37.2780764 15.920874,37.0815952 15.7783801,36.7745851 C15.6358862,36.4675751 15.6870577,36.1064008 15.9093523,35.8501684 C20.2676513,30.8165831 25.6719421,32.7121694 25.9055469,32.7951121 C26.3455102,32.9669332 26.5670132,33.4551301 26.4047637,33.8953956 C26.2425143,34.3356611 25.7556965,34.5673987 25.3075883,34.4176788 C25.1175665,34.3502878 20.7749574,32.8763269 17.2342752,36.9750788 C17.0686575,37.1670028 16.8266103,37.2774754 16.5718138,37.2774754 L16.5718138,37.2774754 Z" id="Path"></path>
                        <path d="M18.8381293,29.5966341 C17.9911766,29.5849152 17.1496938,29.4599492 16.3364656,29.2251199 C16.0362625,29.143013 15.8030559,28.9083965 15.7246925,28.6096481 C15.6463292,28.3108998 15.7347143,27.9934066 15.956554,27.7767652 C16.1783938,27.5601237 16.4999855,27.4772471 16.8001887,27.559354 C20.6616416,28.6186014 21.4147556,26.6815437 21.4879751,26.4569072 C21.550769,26.239703 21.6982103,26.0562094 21.8977386,25.9469486 C22.0972669,25.8376877 22.3324677,25.8116482 22.5514,25.8745803 C24.4062921,26.3756925 25.5516531,25.8866761 26.0049162,25.2628779 C26.3675266,24.7652217 26.3535801,24.1448794 25.9543599,23.5573686 C25.5551397,22.9698577 24.9083681,22.6570946 24.0192751,22.6467268 C23.5409024,22.6430726 23.0649409,22.7142174 22.6089296,22.8575395 C22.236793,22.9865621 21.8236141,22.8519377 21.6012908,22.5292246 C19.8579712,20.008112 17.2918048,21.3611149 17.0041571,21.5235444 C16.590249,21.7381601 16.0792334,21.591215 15.8454656,21.1903568 C15.6116978,20.7894986 15.7382868,20.2772404 16.1324973,20.0288477 C17.4992598,19.2391641 20.5186894,18.5185993 22.6664591,21.0656315 C23.0985539,20.9740622 23.5390644,20.927156 23.9809221,20.9256657 C25.4836636,20.9256657 26.6691209,21.5062646 27.4082884,22.6069834 C28.2049855,23.7906449 28.2102154,25.1989429 27.4239783,26.278926 C26.3622967,27.7390632 24.4429018,27.9844353 22.7884915,27.7010478 C22.2724689,28.4786356 21.1340812,29.5966341 18.8381293,29.5966341 Z" id="Path"></path>
                        <path d="M60.0693811,23.4899776 C60.0109004,23.4903796 59.9525177,23.4851714 59.8950492,23.4744259 C57.9669377,23.1029117 57.1702406,21.6669661 56.9314059,20.5593354 C55.7895315,20.3381549 54.9161284,19.8266749 54.3268864,19.0387192 C53.2355683,17.5733981 53.6190986,15.7192831 53.6295585,15.6397963 C53.7393359,15.1841334 54.1954825,14.8982042 54.6578741,14.9952108 C55.1202657,15.0922174 55.4204187,15.5368131 55.3345251,15.9974867 C55.3345251,16.0303182 55.1078936,17.1967 55.7285153,18.0192151 C56.1242489,18.537607 56.8146034,18.8520981 57.7821458,18.9350408 C58.2340557,18.9737031 58.5805231,19.3494333 58.5788429,19.7990273 C58.5788429,19.9631847 58.6520623,21.4786171 60.2262799,21.7810123 C60.6674189,21.8651145 60.9718268,22.2677528 60.9294066,22.7110335 C60.8869863,23.1543141 60.5116326,23.4930422 60.0624079,23.4934336 L60.0693811,23.4899776 Z" id="Path"></path>
                        <path d="M36.4456572,58.6749635 C24.5492443,58.6749635 23.0988024,52.7203686 23.0430162,52.4663566 C22.9786904,52.1771371 23.0683027,51.875414 23.2804645,51.6668724 C23.4926262,51.4583307 23.7977682,51.3720352 24.0890079,51.4382127 C24.2058103,51.4624043 35.9278913,53.9575973 48.6593544,51.4382127 C48.9430276,51.3823338 49.2361913,51.469561 49.4419201,51.6710553 C49.6476489,51.8725496 49.7391494,52.162069 49.6861696,52.443893 C49.6321267,52.694449 48.36299,58.6749635 36.4456572,58.6749635 Z M25.5289899,53.4599411 C25.8448154,53.8352098 26.2014478,54.1747949 26.5924149,54.4725332 C28.0620333,55.6008996 30.9629171,56.9469906 36.4456572,56.9469906 C43.3579195,56.9469906 46.1594341,54.873423 47.2681853,53.4426613 C37.7113073,55.0462203 29.156838,54.0439959 25.5289899,53.4599411 Z" id="Shape"></path>
                        <path d="M58.0105207,59.7532187 C56.1312222,59.7532187 54.0880516,59.4439115 51.7955863,58.8149293 C49.7706968,58.2631297 47.6788902,57.9898559 45.5789086,58.002782 C43.4441835,58.0052 41.3135982,58.1890385 39.2105621,58.5522775 C38.9011033,58.6139282 38.5821978,58.504935 38.3768399,58.267334 C38.1714819,58.029733 38.1117619,57.7006531 38.2207125,57.4070125 C38.3296631,57.113372 38.590259,56.9010569 38.9019946,56.851952 C41.1032878,56.4700671 43.3336948,56.2769713 45.5684487,56.2748091 C47.8292032,56.2608325 50.0811608,56.5550392 52.2610527,57.1491634 C54.7435398,57.8317127 56.8895662,58.1099164 58.8229076,58.00451 C59.8187329,57.9417589 60.8006236,57.7398959 61.7394813,57.4049034 C62.2990869,57.2079145 62.8377727,56.9988297 63.4078382,56.7759212 C63.8349515,56.6031239 64.279498,56.4389665 64.7310178,56.2713531 C65.1825751,56.1052992 65.6844435,56.3335229 65.8519723,56.7811051 C66.019501,57.2286874 65.7892503,57.7261378 65.337693,57.8921918 C64.8966331,58.0528933 64.4660332,58.2222346 64.0458931,58.3846641 C63.4862876,58.6023887 62.9075054,58.8287531 62.3200067,59.0343819 C61.2253117,59.4222013 60.0808611,59.6548938 58.9205335,59.7255711 C58.6206826,59.7463068 58.3190883,59.7532187 58.0105207,59.7532187 Z" id="Path"></path>
                        <path d="M20.9301128,58.8477608 C20.5740049,58.8471261 20.2540964,58.6318428 20.1221056,58.3040102 C19.9901149,57.9761776 20.0725877,57.6017287 20.3304109,57.3582481 C24.1918638,53.720865 29.5089885,55.956862 29.7338768,56.0536285 C30.175806,56.2444952 30.3779583,56.7543238 30.1853965,57.1923627 C29.9928348,57.6304016 29.4784782,57.8307743 29.0365489,57.6399077 C28.1755927,57.3068357 27.2686123,57.1052461 26.3466068,57.0420291 C24.3975755,56.9072472 22.7762883,57.4342789 21.5280714,58.6093006 C21.3668107,58.7615944 21.1528492,58.8469202 20.9301128,58.8477608 Z" id="Path"></path>
                        <path d="M58.2580721,55.4350142 C55.4687607,55.4350142 53.6801148,54.2824562 53.5702857,54.2098813 C53.1787652,53.9424214 53.0757406,53.4132914 53.3387313,53.0206282 C53.601722,52.6279649 54.1336804,52.5166674 54.5343414,52.7704798 C54.6790369,52.8637904 57.881515,54.8647831 62.3792796,52.7186407 C66.3418451,50.6692647 70.2451376,52.1484096 70.410753,52.2123446 C70.7108541,52.3179361 70.9289773,52.5773375 70.9796939,52.8889535 C71.0304106,53.2005695 70.9056479,53.5147986 70.6542696,53.7085722 C70.4028912,53.9023457 70.0649103,53.9448199 69.772698,53.8193594 C69.7430616,53.8089916 66.4202944,52.571763 63.1742333,54.2565366 L63.1480836,54.2686324 C61.6287407,55.0208657 59.9563408,55.4197721 58.2580721,55.4350142 Z" id="Path"></path>
                        <path d="M38.7119727,54.1822338 C38.6610726,54.182778 38.6102504,54.1781458 38.5603039,54.16841 C38.0869033,54.0858672 37.770263,53.639052 37.8525162,53.1696416 C38.0913509,51.8097269 36.9058936,51.1427293 36.8936904,51.1375454 C36.6865565,51.024165 36.5348264,50.832189 36.4733469,50.6057072 C36.4118675,50.3792254 36.4459221,50.1377012 36.5676896,49.9366041 C36.6269625,49.8363817 37.1412418,48.9153721 36.5049301,48.5213943 C36.1696015,48.3026893 35.7526443,48.2455529 35.370029,48.3658767 C35.1319802,48.4296142 34.9304884,48.5868922 34.8121668,48.8013259 C34.5192891,49.5288025 34.9150226,49.8951328 34.9202526,49.8985887 C35.1114755,50.0626988 35.2213486,50.3010488 35.2213486,50.5517625 C35.2213486,50.8024762 35.1114755,51.0408262 34.9202526,51.2049363 C34.9202526,51.2049363 33.9666568,52.0689228 33.9980365,53.2957836 C34.010553,53.7729502 33.6304443,54.1698274 33.1490399,54.1822337 C32.6676355,54.1946401 32.2672335,53.8178775 32.2547169,53.3407109 C32.2451027,52.30948 32.5900324,51.30574 33.2327192,50.4947394 C32.8732063,49.7600265 32.8572723,48.9059047 33.1891362,48.1585199 C33.4967524,47.4673402 34.0932846,46.9435803 34.8226267,46.7243024 C35.6963445,46.4467725 36.6492972,46.5683249 37.4236595,47.0560732 C38.6439833,47.8163813 38.7084861,49.1106331 38.3842286,50.1059455 C39.351529,50.9391827 39.8001453,52.2185874 39.5627127,53.466853 C39.4903901,53.8775221 39.1325366,54.1784384 38.7119727,54.1822338 Z" id="Path"></path>
                        <path d="M47.9515666,42.7776121 L47.7772346,42.7776121 C47.2958302,42.7776121 46.9055748,42.3907921 46.9055748,41.9136256 C46.9055748,41.436459 47.2958302,41.0496391 47.7772346,41.0496391 L47.9515666,41.0496391 C48.432971,41.0496391 48.8232264,41.436459 48.8232264,41.9136256 C48.8232264,42.3907921 48.432971,42.7776121 47.9515666,42.7776121 Z" id="Path"></path>
                        <path d="M52.1355336,42.7776121 L51.9612017,42.7776121 C51.4797973,42.7776121 51.0895419,42.3907921 51.0895419,41.9136256 C51.0895419,41.436459 51.4797973,41.0496391 51.9612017,41.0496391 L52.1355336,41.0496391 C52.6169381,41.0496391 53.0071934,41.436459 53.0071934,41.9136256 C53.0071934,42.3907921 52.6169381,42.7776121 52.1355336,42.7776121 Z" id="Path"></path>
                        <path d="M35.0510016,40.8768418 L34.8766696,40.8768418 C34.3952652,40.8768418 34.0050098,40.4900219 34.0050098,40.0128553 C34.0050098,39.5356887 34.3952652,39.1488688 34.8766696,39.1488688 L35.0510016,39.1488688 C35.532406,39.1488688 35.9226614,39.5356887 35.9226614,40.0128553 C35.9226614,40.4900219 35.532406,40.8768418 35.0510016,40.8768418 L35.0510016,40.8768418 Z" id="Path"></path>
                    </g>
                    <g id="Group" transform="translate(9.424203, 9.082139)">
                        <path d="M2.78931136,11.577419 L0.8716598,11.577419 C0.390255385,11.577419 0,11.1905991 0,10.7134325 C0,10.2362659 0.390255385,9.84944602 0.8716598,9.84944602 L2.78931136,9.84944602 C3.27071578,9.84944602 3.66097116,10.2362659 3.66097116,10.7134325 C3.66097116,11.1905991 3.27071578,11.577419 2.78931136,11.577419 Z" id="Path"></path>
                        <path d="M2.78931136,21.7724596 L0.8716598,21.7724596 C0.390255385,21.7724596 0,21.3856397 0,20.9084731 C0,20.4313066 0.390255385,20.0444866 0.8716598,20.0444866 L2.78931136,20.0444866 C3.27071578,20.0444866 3.66097116,20.4313066 3.66097116,20.9084731 C3.66097116,21.3856397 3.27071578,21.7724596 2.78931136,21.7724596 L2.78931136,21.7724596 Z" id="Path"></path>
                        <path d="M2.78931136,42.1625408 L0.8716598,42.1625408 C0.390255385,42.1625408 0,41.7757209 0,41.2985544 C0,40.8213878 0.390255385,40.4345679 0.8716598,40.4345679 L2.78931136,40.4345679 C3.27071578,40.4345679 3.66097116,40.8213878 3.66097116,41.2985544 C3.66097116,41.7757209 3.27071578,42.1625408 2.78931136,42.1625408 Z" id="Path"></path>
                        <path d="M2.78931136,31.9675002 L0.8716598,31.9675002 C0.390255385,31.9675002 0,31.5806803 0,31.1035137 C0,30.6263472 0.390255385,30.2395272 0.8716598,30.2395272 L2.78931136,30.2395272 C3.27071578,30.2395272 3.66097116,30.6263472 3.66097116,31.1035137 C3.66097116,31.5806803 3.27071578,31.9675002 2.78931136,31.9675002 Z" id="Path"></path>
                        <path d="M2.78931136,52.3575815 L0.8716598,52.3575815 C0.390255385,52.3575815 0,51.9707615 0,51.493595 C0,51.0164284 0.390255385,50.6296085 0.8716598,50.6296085 L2.78931136,50.6296085 C3.27071578,50.6296085 3.66097116,51.0164284 3.66097116,51.493595 C3.66097116,51.9707615 3.27071578,52.3575815 2.78931136,52.3575815 Z" id="Path"></path>
                        <path d="M66.5948087,11.577419 L64.6771572,11.577419 C64.1957528,11.577419 63.8054974,11.1905991 63.8054974,10.7134325 C63.8054974,10.2362659 64.1957528,9.84944602 64.6771572,9.84944602 L66.5948087,9.84944602 C67.0762131,9.84944602 67.4664685,10.2362659 67.4664685,10.7134325 C67.4664685,11.1905991 67.0762131,11.577419 66.5948087,11.577419 L66.5948087,11.577419 Z" id="Path"></path>
                        <path d="M66.5948087,21.7724596 L64.6771572,21.7724596 C64.1957528,21.7724596 63.8054974,21.3856397 63.8054974,20.9084731 C63.8054974,20.4313066 64.1957528,20.0444866 64.6771572,20.0444866 L66.5948087,20.0444866 C67.0762131,20.0444866 67.4664685,20.4313066 67.4664685,20.9084731 C67.4664685,21.3856397 67.0762131,21.7724596 66.5948087,21.7724596 L66.5948087,21.7724596 Z" id="Path"></path>
                        <path d="M66.5948087,42.1625408 L64.6771572,42.1625408 C64.1957528,42.1625408 63.8054974,41.7757209 63.8054974,41.2985544 C63.8054974,40.8213878 64.1957528,40.4345679 64.6771572,40.4345679 L66.5948087,40.4345679 C67.0762131,40.4345679 67.4664685,40.8213878 67.4664685,41.2985544 C67.4664685,41.7757209 67.0762131,42.1625408 66.5948087,42.1625408 L66.5948087,42.1625408 Z" id="Path"></path>
                        <path d="M66.5948087,31.9675002 L64.6771572,31.9675002 C64.1957528,31.9675002 63.8054974,31.5806803 63.8054974,31.1035137 C63.8054974,30.6263472 64.1957528,30.2395272 64.6771572,30.2395272 L66.5948087,30.2395272 C67.0762131,30.2395272 67.4664685,30.6263472 67.4664685,31.1035137 C67.4664685,31.5806803 67.0762131,31.9675002 66.5948087,31.9675002 L66.5948087,31.9675002 Z" id="Path"></path>
                        <path d="M66.5948087,52.3575815 L64.6771572,52.3575815 C64.1957528,52.3575815 63.8054974,51.9707615 63.8054974,51.493595 C63.8054974,51.0164284 64.1957528,50.6296085 64.6771572,50.6296085 L66.5948087,50.6296085 C67.0762131,50.6296085 67.4664685,51.0164284 67.4664685,51.493595 C67.4664685,51.9707615 67.0762131,52.3575815 66.5948087,52.3575815 L66.5948087,52.3575815 Z" id="Path"></path>
                        <path d="M54.5659035,3.62874327 C54.0844991,3.62874327 53.6942437,3.24192334 53.6942437,2.76475678 L53.6942437,0.863986493 C53.6942437,0.386819929 54.0844991,0 54.5659035,0 C55.0473079,0 55.4375633,0.386819929 55.4375633,0.863986493 L55.4375633,2.76475678 C55.4375633,3.24192334 55.0473079,3.62874327 54.5659035,3.62874327 Z" id="Path"></path>
                        <path d="M44.2803178,3.62874327 C43.7989134,3.62874327 43.408658,3.24192334 43.408658,2.76475678 L43.408658,0.863986493 C43.408658,0.386819929 43.7989134,0 44.2803178,0 C44.7617223,0 45.1519776,0.386819929 45.1519776,0.863986493 L45.1519776,2.76475678 C45.1519776,3.24192334 44.7617223,3.62874327 44.2803178,3.62874327 Z" id="Path"></path>
                        <path d="M23.7091466,3.62874327 C23.2277421,3.62874327 22.8374868,3.24192334 22.8374868,2.76475678 L22.8374868,0.863986493 C22.8374868,0.386819929 23.2277421,0 23.7091466,0 C24.190551,0 24.5808064,0.386819929 24.5808064,0.863986493 L24.5808064,2.76475678 C24.5808064,3.24192334 24.190551,3.62874327 23.7091466,3.62874327 Z" id="Path"></path>
                        <path d="M33.9947322,3.62874327 C33.5133278,3.62874327 33.1230724,3.24192334 33.1230724,2.76475678 L33.1230724,0.863986493 C33.1230724,0.386819929 33.5133278,0 33.9947322,0 C34.4761366,0 34.866392,0.386819929 34.866392,0.863986493 L34.866392,2.76475678 C34.866392,3.24192334 34.4761366,3.62874327 33.9947322,3.62874327 Z" id="Path"></path>
                        <path d="M13.4235609,3.62874327 C12.9421565,3.62874327 12.5519011,3.24192334 12.5519011,2.76475678 L12.5519011,0.863986493 C12.5519011,0.386819929 12.9421565,0 13.4235609,0 C13.9049653,0 14.2952207,0.386819929 14.2952207,0.863986493 L14.2952207,2.76475678 C14.2952207,3.24192334 13.9049653,3.62874327 13.4235609,3.62874327 Z" id="Path"></path>
                        <path d="M54.3915715,60.9974464 C53.9101671,60.9974464 53.5199117,60.6106265 53.5199117,60.1334599 L53.5199117,58.2326896 C53.5199117,57.755523 53.9101671,57.3687031 54.3915715,57.3687031 C54.8729759,57.3687031 55.2632313,57.755523 55.2632313,58.2326896 L55.2632313,60.1334599 C55.2632313,60.6106265 54.8729759,60.9974464 54.3915715,60.9974464 Z" id="Path"></path>
                        <path d="M44.1059859,60.9974464 C43.6245815,60.9974464 43.2343261,60.6106265 43.2343261,60.1334599 L43.2343261,58.2326896 C43.2343261,57.755523 43.6245815,57.3687031 44.1059859,57.3687031 C44.5873903,57.3687031 44.9776457,57.755523 44.9776457,58.2326896 L44.9776457,60.1334599 C44.9776457,60.6106265 44.5873903,60.9974464 44.1059859,60.9974464 Z" id="Path"></path>
                        <path d="M23.5348146,60.9974464 C23.0534102,60.9974464 22.6631548,60.6106265 22.6631548,60.1334599 L22.6631548,58.2326896 C22.6631548,57.755523 23.0534102,57.3687031 23.5348146,57.3687031 C24.016219,57.3687031 24.4064744,57.755523 24.4064744,58.2326896 L24.4064744,60.1334599 C24.4064744,60.6106265 24.016219,60.9974464 23.5348146,60.9974464 L23.5348146,60.9974464 Z" id="Path"></path>
                        <path d="M33.8204002,60.9974464 C33.3389958,60.9974464 32.9487404,60.6106265 32.9487404,60.1334599 L32.9487404,58.2326896 C32.9487404,57.755523 33.3389958,57.3687031 33.8204002,57.3687031 C34.3018047,57.3687031 34.69206,57.755523 34.69206,58.2326896 L34.69206,60.1334599 C34.69206,60.6106265 34.3018047,60.9974464 33.8204002,60.9974464 Z" id="Path"></path>
                        <path d="M13.249229,60.9974464 C12.7678245,60.9974464 12.3775692,60.6106265 12.3775692,60.1334599 L12.3775692,58.2326896 C12.3775692,57.755523 12.7678245,57.3687031 13.249229,57.3687031 C13.7306334,57.3687031 14.1208888,57.755523 14.1208888,58.2326896 L14.1208888,60.1334599 C14.1208888,60.6106265 13.7306334,60.9974464 13.249229,60.9974464 Z" id="Path"></path>
                    </g>
                </g>
            </g>
        </g>
    </g>
</svg>