<svg width="215" height="58" viewBox="0 0 215 58" xmlns="http://www.w3.org/2000/svg" xmlns:xlink="http://www.w3.org/1999/xlink">
    <defs>
        <path id="a" d="M0 0h30.42v17.816H0z"/>
        <path id="c" d="M0 0h7.033v21.252H0z"/>
    </defs>
    <g fill="none" fill-rule="evenodd">
        <path fill="#FEFEFE" d="m32.542 2.991-1.332 8.114 10.164 17.367 17.67-5.089 2.055-5.953 1.35-8.11-16.887 2.623"/>
        <path fill="#CB4129" d="m32.343 2.958-1.332 8.114-.011.073.037.063L41.2 28.575l.079.136.15-.044 17.668-5.088.1-.029.035-.1 2.056-5.952.005-.016.003-.017 1.351-8.112.047-.277-.276.043-16.888 2.623.062.403L62.48 9.52l-.23-.235-1.35 8.113.007-.034-2.055 5.952.134-.129-17.667 5.09.228.091-10.165-17.367.026.137 1.33-8.113z"/>
        <path d="M2.718 8.943S.261 24.436.211 24.664c-.05.229.108.497.108.497l3.46 3.958 4.79 1.3-.564 3.623 4.232 4.901c1.206 1.106 2.277.693 2.277.693l1.974-.535 3.84-10.137 17.22-6.414.787-4.47-17.56-13.75-4.167.84-2.022 8.941" fill="#FEFEFE"/>
        <path d="M2.52 8.911C1.673 14.241.062 24.385.013 24.621c-.065.297.112.61.132.644l.01.016.012.015 3.46 3.957.04.045.06.017 4.79 1.3-.147-.228-.565 3.623-.014.094.062.071 4.232 4.903.008.008.008.008c1.283 1.176 2.435.75 2.484.732l-.02.007 1.975-.535.099-.027.036-.097 3.84-10.137-.118.118 17.22-6.415.107-.04.02-.115.788-4.47.022-.12-.096-.076-17.56-13.748-.073-.058-.09.019-4.167.839-.129.026-.028.128-2.022 8.941.393.091 2.021-8.941-.157.154 4.168-.84-.163-.038 17.56 13.749-.075-.196-.788 4.47.129-.156-17.22 6.415-.085.031-.033.087-3.84 10.137.136-.124-1.974.536-.01.002-.01.004c-.038.014-.978.347-2.07-.654l.017.018-4.232-4.903.047.166.564-3.624.029-.18-.175-.048-4.791-1.3.099.061-3.46-3.956.022.029c-.03-.052-.111-.228-.085-.347.047-.211 2.496-15.632 2.51-15.74l-.398-.058z" fill="#CB4129"/>
        <path d="m45.43 21.091-1.183 10.523L51.8 47.196l3.122 3.836s.805.941 2.157.584c1.352-.356 7.39-1.749 7.39-1.749l.518-3.68 6.908 1.922 5.83-1.38s.637-.195.788-.65c.151-.454 2.545-15.79 2.545-15.79l-8.487-5.113.875-4.155" fill="#FEFEFE"/>
        <path d="m45.23 21.069-1.183 10.523-.006.059.025.052 7.552 15.583.01.02.015.02 3.122 3.834.002.002.002.002a2.355 2.355 0 0 0 2.36.65c1.334-.353 7.323-1.736 7.384-1.75l.135-.03.02-.14.517-3.679-.252.166 6.908 1.924.049.013.05-.01 5.83-1.382h.007l.006-.003c.03-.009.737-.232.92-.779.152-.457 2.307-14.252 2.553-15.823l.021-.136-.117-.07-8.487-5.113.094.216.875-4.154-.394-.085-.875 4.155-.03.142.125.074 8.486 5.115-.096-.207c-.661 4.24-2.408 15.337-2.537 15.757-.114.345-.65.517-.655.52l.012-.004-5.83 1.38.1.002-6.908-1.922-.221-.062-.032.229-.518 3.68.154-.169c-.06.014-6.055 1.397-7.396 1.75a1.972 1.972 0 0 1-1.954-.52l.004.003-3.123-3.835.025.04-7.551-15.582.019.112 1.184-10.523-.4-.045z" fill="#CB4129"/>
        <path d="M35.289.44c.838-.198 1.898-.278 3.215-.217 7.977.375 8.537 5.85 8.566 6.138.08-.086 1.589-1.719 4.354-2.373 2.346-.554 5.537-.344 9.32 2.33 7.232 5.11-9.612 9.516-15.167 10.831-.776.183-1.336.298-1.572.364-1.555.436-2.67-.674-2.708-.734-.729-.716-14.574-14.31-6.008-16.339" fill="#BD2825"/>
        <g transform="translate(32.3)">
            <mask id="b" fill="#fff">
                <use xlink:href="#a"/>
            </mask>
            <path d="M8.828 16.889c.106.165 1.32 1.271 2.93.82.122-.035.347-.085.632-.15l.933-.212c3.81-.902 7.226-1.915 9.878-2.93 4.44-1.695 6.854-3.423 7.18-5.132.206-1.08-.406-2.134-1.822-3.134-1.76-1.245-3.537-2.055-5.275-2.408a9.72 9.72 0 0 0-4.206.047c-2.742.65-4.287 2.251-4.455 2.431l.347.12c-.062-.609-.834-5.948-8.757-6.32-1.29-.062-2.39.014-3.27.222C1.386.612.435 1.384.118 2.539c-.528 1.925.715 4.86 3.696 8.723 2.094 2.716 4.39 5.021 5.043 5.662l-.03-.035zM3.035.639c.844-.2 1.907-.271 3.159-.212 7.587.356 8.317 5.383 8.375 5.955l.046.443.302-.325c.16-.172 1.626-1.692 4.253-2.313a9.336 9.336 0 0 1 4.035-.045c1.685.341 3.408 1.13 5.124 2.342 1.272.9 1.83 1.816 1.657 2.724-.48 2.514-6.586 5.336-16.755 7.743l-.928.212c-.302.07-.52.117-.653.155-1.447.405-2.485-.653-2.494-.664l.01.014-.012-.02-.017-.015C8.131 15.645-.652 6.866.507 2.648.78 1.647 1.631.97 3.034.638z" fill="#CB4129" mask="url(#b)"/>
        </g>
        <path d="M24.22 3.327c.757-.18 1.723.083 2.157.584l11.825 13.696c.433.502.17 1.055-.586 1.235l-20.647 4.886c-.758.18-1.724-.082-2.158-.584l-4.232-4.902 7.514-1.77-11.74-3.154-3.366-3.87c-.434-.502-.172-1.055.586-1.234l5.79-1.37L21.048 9.96l-4.219-4.885 7.39-1.749z" fill="#BD2825"/>
        <path d="m16.678 5.21 4.218 4.886.204-.33-11.686-3.12-.048-.013-.048.012-5.79 1.37c-.475.113-.808.37-.915.705-.091.285-.012.591.222.862l3.367 3.87.04.047.06.016 11.739 3.154.006-.395-7.514 1.77-.326.076.22.256 4.232 4.901c.486.563 1.52.847 2.356.65L37.66 19.04c.474-.113.808-.37.914-.706.09-.283.012-.59-.222-.86L26.53 3.778c-.486-.562-1.52-.847-2.356-.649l-7.39 1.748-.325.078.22.255zm7.588-1.685c.679-.162 1.576.078 1.96.52L38.048 17.74c.098.114.202.287.143.47-.061.194-.294.356-.622.434L16.923 23.53c-.68.161-1.577-.076-1.96-.52l-4.232-4.902-.107.332 7.515-1.77.006-.395-11.74-3.153.1.062-3.367-3.87c-.097-.112-.201-.285-.142-.469.062-.194.294-.356.623-.433l5.79-1.371-.097-.001 11.685 3.118.634.17-.431-.5-4.218-4.887-.106.332 7.39-1.748z" fill="#CB4129"/>
        <path d="m18.266 26.99-2.548 15.888s-.036.276.202.585c.24.309 4.232 4.9 4.232 4.9l5.261-1.333-1.008 6.26 3.248 3.69s1.091 1.066 2.248.764c1.16-.303 5.79-1.371 5.79-1.371l3.186-6.728 4.282 4.96 7.389-1.75s.586-.177.77-.788c.31-1.034 2.587-15.737 2.587-15.737" fill="#FEFEFE"/>
        <path d="m18.068 26.958-2.549 15.887v.006c-.005.036-.04.371.243.737.24.31 4.075 4.722 4.239 4.91l.081.093.119-.03 5.26-1.334-.246-.23-1.008 6.26-.015.096.063.072 3.247 3.69.005.006.006.006c.048.047 1.187 1.138 2.438.813 1.144-.299 5.738-1.36 5.784-1.37l.095-.022.042-.088 3.186-6.727-.333.045 4.282 4.96.08.092.118-.028 7.388-1.75h.007l.006-.002c.028-.01.692-.217.904-.924.311-1.036 2.501-15.163 2.594-15.764l-.398-.063c-.022.146-2.278 14.7-2.58 15.71-.151.5-.631.65-.636.652l.012-.004-7.39 1.75.198.064-4.282-4.96-.2-.232-.133.279-3.186 6.725.137-.11c-.046.011-4.646 1.073-5.796 1.373-1.031.269-2.048-.702-2.058-.712l.011.011-3.247-3.69.048.167 1.008-6.26.05-.304-.298.075-5.261 1.334.2.063c-.04-.046-3.992-4.593-4.224-4.893-.178-.23-.161-.426-.16-.435l-.002.009 2.548-15.89-.397-.063z" fill="#CB4129"/>
        <path d="M39.715 21.548c.758-.18 1.724.082 2.157.585l11.824 13.696c.433.503.171 1.055-.587 1.234l-7.388 1.75-4.282-4.96-3.186 6.727-5.79 1.37c-.758.18-1.723-.081-2.157-.584L26.967 37.5l3.083-6.663-7.336 1.736-4.232-4.901c-.433-.504-.171-1.056.587-1.235l20.646-4.888z" fill="#BD2825"/>
        <path d="M19.022 26.238c-.473.113-.806.37-.914.705-.09.283-.012.59.222.86l4.232 4.903.08.091.118-.027 7.336-1.736-.229-.284-3.082 6.663-.055.12.086.1 3.338 3.866c.485.562 1.52.848 2.355.65l5.789-1.371.094-.022.042-.088 3.187-6.727-.334.046 4.282 4.959.08.093.117-.028 7.39-1.75c.474-.113.807-.369.914-.705.09-.284.011-.59-.223-.861L42.024 21.999c-.485-.562-1.52-.846-2.355-.649l-20.647 4.888zm20.739-4.493c.68-.16 1.577.078 1.96.522l11.823 13.695c.097.113.201.286.142.47-.061.193-.294.355-.622.433l-7.39 1.75.198.064-4.281-4.96-.201-.233-.133.279-3.186 6.727.135-.11-5.789 1.371c-.68.16-1.577-.078-1.96-.522l-3.338-3.866.03.22 3.083-6.663.175-.38-.404.096-7.335 1.736.198.064-4.232-4.901c-.097-.113-.201-.286-.143-.469.062-.195.295-.357.624-.435l20.646-4.888z" fill="#CB4129"/>
        <path d="M66.891 15.421c.757-.179 1.723.083 2.157.585l4.232 4.902-7.476 1.77 11.753 3.184 3.315 3.84c.434.503.172 1.055-.585 1.234l-5.83 1.38L62.83 29.21l4.2 4.865-7.39 1.75c-.757.179-1.723-.083-2.156-.586L45.659 21.543c-.434-.503-.172-1.055.586-1.235l20.646-4.887z" fill="#BD2825"/>
        <path d="M46.199 20.11c-.474.113-.807.37-.915.706-.09.284-.011.59.223.86l11.825 13.696c.485.562 1.519.847 2.355.649l7.39-1.749.325-.077-.22-.254-4.2-4.866-.204.33 11.628 3.108.048.012.048-.01 5.831-1.38c.473-.113.806-.37.914-.705.09-.285.011-.59-.223-.862l-3.316-3.841-.04-.047-.06-.015-11.752-3.183-.006.395 7.476-1.771.326-.077-.22-.254-4.232-4.902c-.486-.562-1.52-.847-2.354-.65L46.199 20.11zm20.738-4.491c.68-.16 1.577.078 1.96.522l4.231 4.9.106-.331-7.476 1.77-.78.185.774.21 11.752 3.182-.1-.063 3.317 3.84c.097.114.2.288.143.47-.062.195-.295.357-.623.434l-5.83 1.38.097.002-11.627-3.108-.634-.17.431.5 4.2 4.866.106-.332-7.39 1.749c-.68.162-1.575-.077-1.959-.52L45.81 21.409c-.097-.113-.2-.286-.142-.469.061-.194.294-.356.623-.434l20.646-4.887z" fill="#CB4129"/>
        <path d="m90.669 42.603.036-5.07c-2.7 1.627-4.058 3.322-4.07 5.084-.005.65.147 1.182.457 1.595.31.415.707.623 1.191.628.598.004 1.144-.321 1.64-.975.495-.653.744-1.074.746-1.262m5.337 1.436-.019 2.625c-1.09.96-1.988 1.438-2.695 1.434-1.284-.01-2.122-.847-2.515-2.511-1.27 1.714-2.522 2.566-3.752 2.557-1.016-.008-1.903-.51-2.66-1.506-.758-.998-1.133-2.17-1.123-3.515.011-1.548.557-2.86 1.638-3.938 1.08-1.078 3.028-2.424 5.843-4.038l.014-1.889c.012-1.707-.66-2.566-2.016-2.576-1.385-.01-3.027 1.052-4.927 3.185l.028-3.996c1.763-1.68 3.506-2.514 5.227-2.5 1.436.01 2.655.497 3.66 1.462 1.005.964 1.501 2.257 1.49 3.88l-.081 11.133c-.006.768.17 1.153.528 1.156.215.001.668-.32 1.36-.963M101.76 48.16l-5.73-20.205 3.435.025 2.78 11.28.085.002 2.943-11.238 3.457.025-6.001 20.118zM113.895 36.106l3.8.027c.027-3.675-.618-5.519-1.934-5.53-1.217-.008-1.84 1.827-1.866 5.503m6.816 7.119-.026 3.431c-1.23 1.149-2.578 1.718-4.043 1.708-1.983-.015-3.513-.925-4.593-2.728-1.078-1.804-1.606-4.386-1.582-7.745.024-3.272.52-5.814 1.49-7.625.968-1.81 2.308-2.71 4.02-2.697 3.564.027 5.282 3.763 5.158 11.21l-7.216-.054c-.03 4.264 1.113 6.405 3.43 6.422 1.258.01 2.379-.632 3.362-1.922M124.848 47.891l.141-19.722 3.458.026-.015 2.132h.086c.977-1.63 2.188-2.44 3.641-2.43 1.294.01 2.327.533 3.104 1.568.775 1.035 1.157 2.472 1.144 4.313l-.103 14.198-3.458-.026.102-14.115c.014-1.898-.596-2.853-1.83-2.862-.688-.005-1.312.349-1.87 1.062-.558.715-.836 1.136-.837 1.266l-.106 14.615-3.457-.025zM151.785 28.368l-.143 19.72-3.457-.025.015-2.133h-.086c-.93 1.616-2.096 2.419-3.5 2.408-1.305-.01-2.362-.517-3.17-1.523-.811-1.007-1.21-2.393-1.197-4.161l.106-14.371 3.457.026-.102 14.112c-.014 1.87.593 2.81 1.82 2.819.715.005 1.342-.32 1.88-.976.54-.656.812-1.1.813-1.332l.107-14.59 3.457.026zM158.932 36.44l3.8.027c.027-3.676-.617-5.52-1.934-5.53-1.218-.009-1.84 1.826-1.866 5.502m6.815 7.12-.026 3.43c-1.228 1.15-2.577 1.718-4.041 1.707-1.985-.014-3.514-.923-4.594-2.727-1.08-1.804-1.606-4.386-1.581-7.746.023-3.271.52-5.813 1.489-7.624.969-1.809 2.308-2.71 4.018-2.696 3.566.027 5.284 3.763 5.159 11.209l-7.215-.054c-.031 4.265 1.112 6.406 3.43 6.423 1.257.009 2.378-.632 3.36-1.923M168.662 28.859l3.855-.013-.002-.365.704-.002.001.364.727-.003c1.126-.003 1.69.531 1.693 1.605l-.668.003c-.001-.28-.086-.483-.255-.61-.168-.125-.44-.188-.813-.186l-.681.002.001.452-.703.003-.002-.453-3.855.013-.002-.81zM172.59 31.972c0-.401-.549-.6-1.644-.596-1.09.003-1.636.212-1.634.627.002.4.548.599 1.638.595 1.095-.003 1.642-.212 1.64-.626m-4.044.021c-.002-.442.211-.793.637-1.052.426-.26 1.013-.39 1.76-.394.748-.002 1.337.125 1.767.38.43.258.647.608.648 1.049 0 .442-.213.794-.641 1.056-.428.261-1.016.393-1.764.395-.747.002-1.335-.126-1.764-.384-.427-.258-.642-.608-.643-1.05M168.68 34.304l4.559-.015.002.81-1.227.004v.02c.543.16.898.293 1.062.398a.5.5 0 0 1 .248.446.701.701 0 0 1-.134.413l-.826-.057a.616.616 0 0 0 .113-.353c0-.253-.227-.46-.681-.62a3.83 3.83 0 0 0-1.303-.24l-1.81.005-.003-.81zM169.471 42.069l-.715.003c-.12-.274-.179-.512-.18-.714-.001-.568.337-.852 1.017-.853l2.962-.011-.001-.527h.07c.468.383 1.072.804 1.813 1.26v.072l-1.175.004.002.754-.703.001-.003-.753-2.598.009c-.24 0-.405.023-.49.07-.085.045-.127.129-.126.25 0 .111.042.257.127.435M168.707 42.71l6.88-.024.003.811-2.773.01v.02c.386.217.58.5.581.846 0 .282-.11.52-.333.714-.226.194-.541.292-.95.294l-3.399.011-.002-.811 3.295-.011c.44-.001.657-.144.656-.425 0-.16-.081-.307-.241-.439-.161-.132-.259-.197-.293-.197l-3.421.012-.003-.811zM171.43 46.992l.004.891c.849-.003 1.272-.16 1.27-.467 0-.285-.424-.427-1.273-.424m-1.632 1.615-.796.003c-.27-.286-.404-.6-.406-.945-.002-.464.205-.825.62-1.082.415-.257 1.011-.388 1.789-.39.758-.003 1.346.107 1.769.33.42.223.632.534.634.936.002.836-.858 1.249-2.579 1.237l-.005-1.692c-.99.004-1.486.277-1.484.82.002.294.153.556.458.783M179.743 41.428l2.967-.006-1.464-8.673h-.074l-1.429 8.679zm-3.741 7.077 3.832-20.839 2.749-.006 3.89 20.823-2.555.005-.745-4.579-3.815.008-.803 4.583-2.553.005zM191.144 36.714h.12c1.481-.003 2.22-1.048 2.217-3.135-.006-2.22-.79-3.331-2.352-3.339l.015 6.474zm-2.626 11.765-.044-20.721 2.212-.006c1.765-.003 3.114.517 4.045 1.56.929 1.043 1.396 2.432 1.399 4.17.005 1.968-.705 3.448-2.128 4.44 1.105.786 2.044 2.88 2.824 6.282l.957 4.255-2.761.007-.803-3.575c-.573-2.502-1.073-4.094-1.499-4.775-.426-.68-.951-.985-1.572-.914l.02 9.27-2.65.007zM200.978 48.453l-.038-18.233-3.154.006-.005-2.487 8.958-.02.005 2.489-3.154.006.037 18.233z" fill="#BD2825"/>
        <g transform="translate(207.967 27.444)">
            <mask id="d" fill="#fff">
                <use xlink:href="#c"/>
            </mask>
            <path d="m.164 20.454-.006-2.763c.797.761 1.567 1.142 2.312 1.14a1.938 1.938 0 0 0 1.416-.59c.39-.39.587-.86.586-1.411-.001-.475-.113-1.05-.335-1.725-.223-.675-.82-1.923-1.794-3.743C1.369 9.543.736 8.165.443 7.227.15 6.29.003 5.462 0 4.745c-.002-1.391.39-2.53 1.176-3.414C1.962.446 2.968.003 4.193 0c.694-.001 1.432.178 2.216.54l.005 2.516c-.723-.424-1.342-.636-1.853-.634-1.335.003-2.001.66-2 1.97.002.485.116 1.068.344 1.748.227.68.828 1.92 1.802 3.72.974 1.798 1.604 3.169 1.893 4.113.288.942.433 1.777.433 2.503.004 1.413-.389 2.56-1.176 3.446-.787.884-1.81 1.328-3.067 1.33-.905.002-1.78-.265-2.626-.798" fill="#BD2825" mask="url(#d)"/>
        </g>
    </g>
</svg>
