<svg width="81" height="80" viewBox="0 0 81 80" xmlns="http://www.w3.org/2000/svg">
    <g transform="translate(.409 .035)" fill="#8A9918" fill-rule="nonzero">
        <path d="M39.805 39.837c-5.305 0-6.68 4.079-6.732 4.253a1.558 1.558 0 0 0 1.04 1.865 1.567 1.567 0 0 0 1.935-.912c0-.022.708-2.087 3.757-2.087 3.05 0 3.746 2.065 3.757 2.087a1.565 1.565 0 0 0 1.968 1.007 1.558 1.558 0 0 0 1.013-1.96c-.06-.174-1.434-4.253-6.738-4.253z"/>
        <path d="M79.845 40.322c.08-5.668-2.89-10.657-7.828-13.304 1.723-5.234.448-10.84-3.486-14.897-4.008-4.13-9.706-5.612-15.145-4.014C50.808 3.074 45.76 0 39.924 0c-5.836 0-10.882 3.074-13.463 8.107-5.434-1.598-11.138-.115-15.145 4.014-3.934 4.054-5.217 9.666-3.487 14.897C2.89 29.668-.08 34.657.002 40.322.083 45.988 3.194 50.9 8.21 53.407c-1.581 5.28-.14 10.85 3.914 14.794 4.122 4.016 9.862 5.34 15.25 3.585 2.518 4.595 7.093 7.45 12.473 7.716h.157c5.38-.265 9.955-3.118 12.473-7.716 5.385 1.748 11.129.424 15.25-3.585 4.05-3.945 5.493-9.51 3.915-14.794 5.011-2.508 8.122-7.416 8.203-13.085zm-10.57 10.73-.165.065a1.553 1.553 0 0 0-.881 2.027l.067.168c1.75 4.446.692 9.296-2.758 12.658-3.52 3.43-8.526 4.384-13.066 2.494l-.165-.07a1.568 1.568 0 0 0-2.05.826l-.07.156c-1.851 4.146-5.682 6.765-10.26 7.016-4.577-.253-8.408-2.872-10.259-7.016l-.072-.156a1.568 1.568 0 0 0-2.05-.812l-.157.069c-4.54 1.89-9.55.935-13.066-2.495-3.444-3.361-4.509-8.211-2.758-12.657l.065-.166a1.553 1.553 0 0 0-.88-2.026l-.165-.066c-4.531-1.832-7.382-5.96-7.45-10.79-.07-4.83 2.66-9.03 7.127-10.968l.157-.07a1.553 1.553 0 0 0 .82-2.056c-.023-.053-.045-.108-.069-.156-1.879-4.395-.958-9.273 2.395-12.73 3.427-3.54 8.404-4.631 12.996-2.868l.167.064c.8.315 1.706-.073 2.028-.868l.065-.166c1.867-4.527 6.123-7.341 11.103-7.341 4.98 0 9.237 2.806 11.101 7.34l.066.156a1.572 1.572 0 0 0 2.035.871l.168-.064c4.591-1.761 9.568-.665 12.994 2.86 3.355 3.456 4.272 8.334 2.396 12.727l-.072.167a1.553 1.553 0 0 0 .82 2.053l.167.07c4.463 1.942 7.201 6.146 7.126 10.971-.075 4.825-2.93 8.966-7.452 10.782h.002z"/>
        <ellipse cx="28.172" cy="35.583" rx="3.02" ry="3.007"/>
        <ellipse cx="51.677" cy="35.583" rx="3.02" ry="3.007"/>
        <path d="M39.924 13.252c-14.675 0-26.614 11.889-26.614 26.503S25.25 66.258 39.924 66.258 66.538 54.37 66.538 39.755 54.6 13.252 39.924 13.252zm0 49.888c-12.948 0-23.483-10.49-23.483-23.385 0-12.895 10.535-23.385 23.483-23.385 12.949 0 23.483 10.49 23.483 23.385 0 12.894-10.534 23.385-23.483 23.385z"/>
    </g>
</svg>
