<svg width="67" height="100" viewBox="0 0 67 100" xmlns="http://www.w3.org/2000/svg">
    <g fill="#585481" fill-rule="nonzero">
        <path d="M62.326 0H4.674A4.686 4.686 0 0 0 0 4.688v93.75A1.56 1.56 0 0 0 1.558 100c.86 0 1.558-.7 1.558-1.563V4.688a1.562 1.562 0 0 1 1.558-1.562h57.652c.86.001 1.557.7 1.558 1.563v93.75A1.56 1.56 0 0 0 65.442 100c.86 0 1.558-.7 1.558-1.563V4.688A4.686 4.686 0 0 0 62.326 0z"/>
        <path d="M55.339 7.813H11.661c-2.568 0-3.87 1.314-3.87 3.906V93.75a1.56 1.56 0 0 0 1.558 1.563c.86 0 1.558-.7 1.558-1.563V11.719a.774.774 0 0 1 .754-.781h43.678c.422.01.757.358.754.78V93.75a1.56 1.56 0 0 0 1.558 1.563c.86 0 1.558-.7 1.558-1.563V11.719c0-2.592-1.302-3.906-3.87-3.906z"/>
        <path d="m50.818 62.503-.955-.76a3.606 3.606 0 0 0-1.973-.757c-.004-.082-.005-.164-.014-.245a3.71 3.71 0 0 0-1.353-2.52l-.955-.76a3.577 3.577 0 0 0-1.64-.727c.055-.36.065-.726.029-1.089a3.707 3.707 0 0 0-1.355-2.52l-.954-.76a3.606 3.606 0 0 0-2.15-.765c.093-1.2-.193-2.4-.818-3.427a5.47 5.47 0 0 0-3.673-2.376c-4.715-.868-8.253 4.357-9.646 6.842-1.782-.182-4.325.613-6.591 4.28-.898 1.182-9.131 12.685 1.225 23.208 3.52 3.578 7.578 5.423 11.856 5.423.868 0 1.734-.075 2.59-.222 6.466-1.101 10.14-6.633 11.755-9.834.353-.7.7-1.404 1.043-2.11l3.827-4.779a4.932 4.932 0 0 0 1.105-3.58 3.712 3.712 0 0 0-1.353-2.522zm-6.039-1.414c.022.431-.114.856-.382 1.194-.192.174-.37.363-.534.564l-3.847 4.802c-.305.229-.878.525-1.237.239l-.955-.76a.621.621 0 0 1-.196-.422 1.816 1.816 0 0 1 .438-1.276l3.931-4.908a1.765 1.765 0 0 1 1.276-.72.558.558 0 0 1 .356.106l.955.76c.117.11.187.26.195.42zm-4.115-5.517a.62.62 0 0 1 .195.421c.024.467-.133.924-.438 1.277l-3.93 4.908c-.528.658-1.312.87-1.632.614l-.098-.078a7.068 7.068 0 0 0 .975-4.323c0-.012 2.342-2.965 2.342-2.965.528-.659 1.311-.87 1.632-.614l.954.76zm-6.204-6.698a2.556 2.556 0 0 1 1.591.977c.531.836.367 2.09.083 3.11-.168.161-2.795 3.39-2.795 3.39-1.75-.809-3.764-1.772-5.09-2.472 1.296-2.198 3.79-5.468 6.211-5.005zm-.542 33.374c-5.28.897-9.28-1.851-11.705-4.316-8.894-9.038-1.277-18.732-.95-19.138.043-.054.084-.111.12-.17 1.752-2.87 3.337-3.105 3.97-2.81 1.313.87 5.11 2.652 7.06 3.55a1.634 1.634 0 0 1-.464 1.849c-.424.396-1.379.358-2.59 0a4.468 4.468 0 0 1-1.761-.866 1.556 1.556 0 0 0-2.656.495 1.566 1.566 0 0 0 .288 1.537 7.145 7.145 0 0 0 3.248 1.832 7.49 7.49 0 0 0 3.518.291l.924.737a3.547 3.547 0 0 0 1.633.719c-.053.363-.06.732-.022 1.097a3.709 3.709 0 0 0 1.354 2.52l.955.76a3.603 3.603 0 0 0 1.973.758c.004.081.004.163.013.244a3.71 3.71 0 0 0 1.354 2.52l.955.76a3.574 3.574 0 0 0 1.595.716c-1.575 2.67-4.422 6.167-8.812 6.915zm14.718-15.6-3.93 4.908c-.31.386-1.121 1.022-1.633.615l-.955-.761a.62.62 0 0 1-.194-.42 1.819 1.819 0 0 1 .437-1.278l3.931-4.907a1.764 1.764 0 0 1 1.276-.72.556.556 0 0 1 .356.106l.955.76a.62.62 0 0 1 .195.42c.023.467-.134.924-.438 1.278z"/>
        <path d="M26.323 66.666a1.556 1.556 0 0 0-1.425.636 1.566 1.566 0 0 0-.162 1.556c.228.51.71.86 1.265.916a5.646 5.646 0 0 1 3.91 2.542 1.557 1.557 0 0 0 2.698.015 1.566 1.566 0 0 0 .008-1.563 8.751 8.751 0 0 0-6.294-4.102zM31.117 40.071a1.565 1.565 0 0 0-.495 2.144c.45.73 1.402.96 2.134.515a3.39 3.39 0 0 1 4.275.519 1.555 1.555 0 0 0 2.632-.599 1.566 1.566 0 0 0-.345-1.524 6.461 6.461 0 0 0-8.2-1.055z"/>
        <path d="M41.29 39.048a1.557 1.557 0 0 0 1.424-.952 1.565 1.565 0 0 0-.309-1.688c-5.699-5.848-12.033-3.312-14.584-1.152a1.566 1.566 0 0 0-.186 2.197c.552.658 1.53.746 2.19.197.534-.443 5.361-4.178 10.351.942.295.296.697.46 1.115.456z"/>
    </g>
</svg>
