<svg width="60" height="60" viewBox="0 0 60 60" xmlns="http://www.w3.org/2000/svg">
    <g fill="#BE2926" fill-rule="nonzero">
        <path d="M22 10h16v2H22zM16 14h22v2H16zM16 10h4v2h-4z"/>
        <path d="M60 14V2a2 2 0 0 0-2-2H20a2 2 0 0 0-2 2v2h-3a5.006 5.006 0 0 0-5 5v3.586L.294 22.292l-.006.007a1.013 1.013 0 0 0-.189.281.948.948 0 0 0-.033.094 1 1 0 0 0-.054.265c0 .022-.012.04-.012.061v34a3 3 0 0 0 3 3h54a3 3 0 0 0 3-3V23a1 1 0 0 0-.294-.708l-3.466-3.466A5 5 0 0 0 60 14zM15 6h28.026A4.948 4.948 0 0 0 42 9v23.375l-12 7.448-18-11.172V9a3 3 0 0 1 3-3zm36 11h-7V9a3 3 0 0 1 6 0v5a4.973 4.973 0 0 0 1 3zm2.584 2 3 3H44v-3h9.584zM44 24h11.493L44 31.134V24zm14 .8v28.786L40.237 35.823 58 24.8zm-48 2.609L4.507 24H10v3.409zM2 24.8l17.763 11.023L2 53.586V24.8zm8-9.384V22H3.414L10 15.416zM57 58H3a1 1 0 0 1-1-1v-.586l19.508-19.508 7.965 4.944a1 1 0 0 0 1.054 0l7.965-4.944L58 56.414V57a1 1 0 0 1-1 1zm1-44a3 3 0 0 1-6 0V9a4.995 4.995 0 0 0-5-5H20V2h38v12z"/>
        <path d="M16 18h10v2H16zM28 18h4v2h-4zM34 18h4v2h-4zM16 22h6v2h-6zM24 22h14v2H24zM16 26h2v2h-2zM20 26h12v2H20zM34 26h4v2h-4zM20 30h18v2H20z"/>
    </g>
</svg>
